<svg width="24" height="24" viewBox="0 0 24 24" fill="none" xmlns="http://www.w3.org/2000/svg">
<path fill-rule="evenodd" clip-rule="evenodd" d="M12.2271 7.12135C12.0933 7.04288 11.9067 7.04288 11.7729 7.12135L11.7473 7.13633L4.01251 10.5153L11.7072 13.9759C11.9122 14.0474 12.1272 14.0468 12.2784 13.9824L19.9987 10.5003L12.2532 7.1366L12.2271 7.12135ZM12.7037 6.24205C12.2716 6.00255 11.7278 6.00265 11.2957 6.24234L3.53235 9.63378L3.50649 9.64899C2.83784 10.0423 2.83784 10.9876 3.50649 11.3809L3.53002 11.3948L11.3312 14.9033L11.3479 14.9094C11.7371 15.0522 12.2338 15.0916 12.6788 14.8988L20.4673 11.386L20.4881 11.3741C21.174 10.9822 21.174 10.0178 20.4881 9.62587L20.4643 9.61229L12.7037 6.24205Z" fill="white"/>
<path fill-rule="evenodd" clip-rule="evenodd" d="M20.9257 13.5341C21.0394 13.7858 20.9275 14.0819 20.6759 14.1956L12.6859 17.8056L12.6845 17.8062C12.2447 18.0034 11.7345 17.9612 11.3479 17.8194C11.3372 17.8155 11.3266 17.8112 11.3162 17.8066L3.29619 14.2265C3.04403 14.114 2.93087 13.8183 3.04343 13.5662C3.15599 13.314 3.45165 13.2008 3.70381 13.3134L11.7066 16.8857C11.9156 16.9586 12.1379 16.9551 12.275 16.8939C12.2748 16.894 12.2751 16.8939 12.275 16.8939L20.2641 13.2843C20.5158 13.1706 20.812 13.2825 20.9257 13.5341Z" fill="white"/>
</svg>
