<svg width="24" height="24" viewBox="0 0 24 24" fill="none" xmlns="http://www.w3.org/2000/svg">
<path d="M17.2201 2.15002C17.6701 2.15002 17.7001 2.15002 19.8301 7.79002L19.8201 7.77002C21.1601 11.33 21.8401 13.23 21.8401 13.42V17.64C21.8401 18.55 21.1001 19.29 20.1901 19.29H10.7701C9.86012 19.29 9.12012 18.55 9.12012 17.64V13.79C9.12012 13.51 9.34012 13.29 9.62012 13.29C9.90012 13.29 10.1201 13.51 10.1201 13.79V17.64C10.1201 18 10.4101 18.29 10.7701 18.29H20.1901C20.5501 18.29 20.8401 18 20.8401 17.64V14.16H20.8301L14.1801 7.49002C13.3101 6.62002 13.3101 5.21002 14.1801 4.34002L15.4401 3.15002H10.7701C10.4101 3.15002 10.1201 3.44002 10.1201 3.80002V8.99002C10.1201 9.27002 9.90012 9.49002 9.62012 9.49002C9.34012 9.49002 9.12012 9.27002 9.12012 8.99002V3.80002C9.12012 2.89002 9.86012 2.15002 10.7701 2.15002H16.6201C16.6801 2.14002 16.7501 2.14002 16.8101 2.15002H17.2201Z" fill="white"/>
<path d="M13.1501 20.73C13.1501 20.45 13.3801 20.22 13.6601 20.22C13.9401 20.22 14.1701 20.45 14.1701 20.73C14.1701 21.64 13.4301 22.39 12.5101 22.39H3.28012C2.37012 22.39 1.62012 21.65 1.62012 20.73V6.88002C1.62012 5.97002 2.36012 5.22002 3.28012 5.22002H7.70012C7.98012 5.22002 8.21012 5.45002 8.21012 5.73002C8.21012 6.01002 7.98012 6.24002 7.70012 6.24002H3.28012C2.93012 6.24002 2.64012 6.53002 2.64012 6.88002V20.73C2.64012 21.08 2.93012 21.37 3.28012 21.37H12.5101C12.8601 21.37 13.1501 21.08 13.1501 20.73Z" fill="white"/>
<path d="M6.55012 12.01C6.27012 12.01 6.04012 11.78 6.04012 11.5C6.04012 11.22 6.27012 10.99 6.55012 10.99H14.1001L12.6901 9.33002C12.5101 9.11002 12.5401 8.79002 12.7501 8.61002C12.9701 8.43002 13.2901 8.45002 13.4701 8.67002L15.5901 11.17C15.7501 11.36 15.7501 11.64 15.5901 11.83L13.4701 14.33C13.3701 14.45 13.2201 14.51 13.0801 14.51C12.9601 14.51 12.8501 14.47 12.7501 14.39C12.5301 14.21 12.5101 13.88 12.6901 13.67L14.1001 12.01H6.55012Z" fill="white"/>
</svg>
