<svg width="24" height="24" viewBox="0 0 24 24" fill="none" xmlns="http://www.w3.org/2000/svg">
<path d="M11.65 6.1499C11.85 5.9499 12.16 5.9499 12.36 6.1499L17.86 11.6499C17.96 11.7499 18.01 11.88 18.01 12C18.01 12.12 17.96 12.2599 17.86 12.3499L12.36 17.8499C12.16 18.0499 11.85 18.0499 11.65 17.8499C11.45 17.6499 11.45 17.3399 11.65 17.1399L16.3 12.49H6.51001C6.23001 12.49 6.01001 12.27 6.01001 11.99C6.01001 11.71 6.23001 11.49 6.51001 11.49H16.3L11.65 6.83984C11.45 6.65984 11.45 6.3399 11.65 6.1499ZM12 2C17.52 2 22 6.48 22 12C22 17.52 17.52 22 12 22C6.48 22 2 17.52 2 12C2 6.48 6.48 2 12 2ZM12 3C7.04 3 3 7.04 3 12C3 16.96 7.04 21 12 21C16.96 21 21 16.96 21 12C21 7.04 16.96 3 12 3Z" fill="white"/>
</svg>
