<svg width="24" height="24" viewBox="0 0 24 24" fill="none" xmlns="http://www.w3.org/2000/svg">
<path d="M18.72 3.71973H14.33C13.33 3.71973 12.39 4.22006 11.83 5.06006L11.3099 5.83008C10.9399 6.39008 10.3099 6.71973 9.6499 6.71973H4.71997C3.61997 6.71973 2.71997 7.61973 2.71997 8.71973V16.7197C2.71997 17.8197 3.61997 18.7197 4.71997 18.7197H11.22H11.72H12.22C12.5 18.7197 12.72 18.4997 12.72 18.2197C12.72 17.9397 12.5 17.7197 12.22 17.7197H11.72H11.22H4.71997C4.16997 17.7197 3.71997 17.2697 3.71997 16.7197V8.71973C3.71997 8.16973 4.16997 7.71973 4.71997 7.71973H9.6499H18.72C19.27 7.71973 19.72 8.16973 19.72 8.71973V9.31982V11.2197V11.7197V12.2197C19.72 12.4997 19.94 12.7197 20.22 12.7197C20.5 12.7197 20.72 12.4997 20.72 12.2197V11.7197V11.2197V9.31982V8.71973V5.71973C20.72 4.60973 19.83 3.71973 18.72 3.71973ZM18.72 6.71973H11.86C11.96 6.60973 12.0699 6.50988 12.1499 6.37988L12.6699 5.60986C13.0399 5.04986 13.66 4.71973 14.33 4.71973H18.72C19.27 4.71973 19.72 5.16973 19.72 5.71973V7C19.43 6.82 19.09 6.71973 18.72 6.71973ZM21.1399 19.4199L18.72 17C19.07 16.51 19.2799 15.9098 19.2799 15.2598C19.2799 13.6098 17.9399 12.27 16.2799 12.27C14.6199 12.27 13.2799 13.6098 13.2799 15.2598C13.2799 16.9098 14.6199 18.25 16.2799 18.25C16.9199 18.25 17.5199 18.05 18.0099 17.71L20.4299 20.1299C20.5299 20.2299 20.6599 20.2798 20.7799 20.2798C20.8999 20.2798 21.04 20.2299 21.13 20.1299C21.33 19.9399 21.3299 19.6199 21.1399 19.4199ZM16.2799 17.25C15.1799 17.25 14.2799 16.3598 14.2799 15.2598C14.2799 14.1598 15.1799 13.27 16.2799 13.27C17.3799 13.27 18.2799 14.1598 18.2799 15.2598C18.2799 16.3598 17.3799 17.25 16.2799 17.25Z" fill="white"/>
</svg>
