<svg width="24" height="24" viewBox="0 0 24 24" fill="none" xmlns="http://www.w3.org/2000/svg">
<path d="M16.24 7.76C16.04 7.56 15.73 7.56 15.53 7.76L11.99 11.3L8.45 7.76C8.25 7.56 7.94 7.56 7.74 7.76C7.54 7.96 7.54 8.27 7.74 8.47L11.28 12.01L7.74 15.55C7.54 15.75 7.54 16.06 7.74 16.26C7.84 16.36 7.97 16.41 8.09 16.41C8.21 16.41 8.35 16.36 8.44 16.26L11.98 12.72L15.52 16.26C15.62 16.36 15.75 16.41 15.87 16.41C15.99 16.41 16.13 16.36 16.22 16.26C16.42 16.06 16.42 15.75 16.22 15.55L12.68 12.01L16.22 8.47C16.42 8.27 16.42 7.96 16.22 7.76H16.24ZM12 2C6.48 2 2 6.48 2 12C2 17.52 6.48 22 12 22C17.52 22 22 17.52 22 12C22 6.48 17.52 2 12 2ZM12 21C7.04 21 3 16.96 3 12C3 7.04 7.04 3 12 3C16.96 3 21 7.04 21 12C21 16.96 16.96 21 12 21Z" fill="white"/>
</svg>
