<svg width="24" height="24" viewBox="0 0 24 24" fill="none" xmlns="http://www.w3.org/2000/svg">
<path d="M5.37431 9.06815C5.33591 8.88287 5.16695 8.72255 4.97975 8.69567C4.91159 8.68607 4.89335 8.68704 4.83191 8.6976C4.68119 8.72256 4.54583 8.82336 4.47863 8.96255C4.42871 9.0624 4.42967 9.04128 4.42967 10.103V11.0813H3.92471C3.36311 11.0813 3.35639 11.0832 3.24887 11.1389C3.14711 11.1926 3.06359 11.2886 3.02231 11.3981C3.00695 11.4413 3.00311 11.4691 3.00311 11.5594C3.00311 11.6496 3.00695 11.6755 3.02231 11.7187C3.06359 11.8282 3.14711 11.9251 3.24887 11.9789C3.36599 12.0403 3.25655 12.0374 4.93463 12.0355L6.44663 12.0326L6.50423 12.0086C6.58295 11.9779 6.62903 11.9462 6.68567 11.8886C6.77399 11.7994 6.81815 11.6861 6.81719 11.5555C6.81623 11.352 6.70199 11.1888 6.50615 11.1101L6.44663 11.0861L5.38391 11.0813V10.0963C5.38391 9.41664 5.38103 9.09983 5.37431 9.06815ZM12.1077 8.68992C10.229 8.68895 8.69015 8.69376 8.65751 8.6976C8.52503 8.72063 8.41175 8.79263 8.33879 8.90303C8.18903 9.12863 8.25143 9.42335 8.47895 9.5712C8.50775 9.58943 8.55383 9.61152 8.58167 9.62111C8.63255 9.63743 8.70647 9.63743 12.0809 9.63743C12.5062 9.63743 12.5782 9.63743 12.6281 9.62111C12.8422 9.55103 12.9813 9.3216 12.9478 9.09695C12.9199 8.91647 12.7922 8.76863 12.6079 8.70623C12.5618 8.69183 12.4399 8.69088 12.1077 8.68992ZM3.14519 7.59743C3.20855 7.65503 3.24311 7.67807 3.32759 7.71071L3.37559 7.72799L4.87223 7.73183C5.96183 7.73376 6.38519 7.73087 6.42743 7.72319C6.46391 7.71743 6.51575 7.70016 6.55799 7.67807C6.80375 7.55519 6.89207 7.24991 6.74999 7.00991C6.68855 6.90431 6.56183 6.81215 6.44375 6.78815C6.41399 6.78239 6.22487 6.77951 5.89079 6.77951H5.38391V5.32319C5.38391 4.31616 5.38679 3.84383 5.39351 3.79007C5.44151 3.40416 5.71703 3.08736 6.10007 2.98175L6.18647 2.95871H17.9762L18.0626 2.98175C18.4457 3.08736 18.7212 3.40416 18.7692 3.79007C18.775 3.84383 18.7788 7.11552 18.7788 10.6426C19.109 10.7568 19.4277 10.896 19.7321 11.0592C19.7321 7.35072 19.7292 3.79296 19.7234 3.72863C19.6351 2.83007 18.9391 2.11679 18.0406 2.00736C17.9378 1.99679 6.20567 1.99776 6.11255 2.00928C5.75927 2.0544 5.40887 2.20224 5.13431 2.42496C4.74359 2.7408 4.48919 3.21984 4.43927 3.72863C4.43351 3.79199 4.42967 4.32384 4.42967 5.30112V6.7776L3.36695 6.78432L3.30551 6.80735C3.17879 6.85728 3.06167 6.97823 3.02135 7.10112C3.00023 7.16159 2.99351 7.29024 3.00695 7.35552C3.02423 7.44096 3.07703 7.53216 3.14519 7.59743ZM6.45431 16.3267C6.62231 16.2835 6.75383 16.1568 6.80183 15.9888C6.82199 15.9216 6.82199 15.8026 6.80183 15.7344C6.76631 15.6096 6.67799 15.5011 6.56663 15.4426C6.45815 15.3859 6.44471 15.385 5.88503 15.385H5.38391V14.3981C5.38391 13.5427 5.38199 13.4035 5.37047 13.3594C5.30999 13.1222 5.08247 12.9677 4.84151 12.9994C4.69367 13.0195 4.55831 13.1146 4.48823 13.248C4.42775 13.3622 4.42967 13.3219 4.42967 14.4067V15.383L3.90263 15.3869C3.39191 15.3898 3.37367 15.3907 3.32759 15.408C3.23831 15.4416 3.20183 15.4646 3.13751 15.5318C3.03287 15.6374 2.99351 15.7402 3.00119 15.888C3.01079 16.08 3.12503 16.2374 3.30647 16.3094L3.36695 16.3344L4.88375 16.3382C6.22295 16.3392 6.40919 16.3373 6.45431 16.3267ZM21.7106 16.5226L21.6866 16.2605C21.5321 14.8675 20.8044 13.5984 19.6774 12.7536C19.0438 12.2784 18.3074 11.9578 17.5318 11.8176L17.1977 11.7686C17.0949 11.7571 17.0249 11.7514 16.9481 11.7475L16.661 11.7418C16.5391 11.7418 16.4086 11.7408 16.3826 11.7418C15.8594 11.7715 15.39 11.8646 14.9225 12.0307C13.5449 12.5194 12.4409 13.5811 11.8946 14.9395C11.861 15.0221 11.791 15.2131 11.7766 15.263L11.7746 15.2688V15.2736C11.7727 15.2774 11.7708 15.2842 11.7689 15.2899C11.7641 15.3043 11.7593 15.3226 11.7535 15.3398C11.647 15.6806 11.5769 16.0608 11.5442 16.4611C11.5327 16.6099 11.5327 17.0534 11.5442 17.2032C11.5769 17.6035 11.647 17.9827 11.7535 18.3245V18.3264C11.7593 18.3437 11.7641 18.361 11.7689 18.3744C11.7708 18.3811 11.7727 18.3859 11.7746 18.3907V18.3955L11.7766 18.4013L11.8946 18.7258C12.3305 19.8106 13.1244 20.711 14.1487 21.2832C14.7305 21.6096 15.3852 21.8189 16.0524 21.8938C16.2741 21.9178 16.3433 21.9226 16.6245 21.9226C16.9068 21.9226 16.9749 21.9187 17.1977 21.8938L17.4319 21.863C17.6681 21.8246 17.91 21.769 18.1183 21.7037C18.1356 21.6979 18.1529 21.6922 18.1673 21.6874C18.173 21.6854 18.1798 21.6835 18.1836 21.6826H18.1884L18.1922 21.6806C18.246 21.6653 18.4399 21.5942 18.5321 21.5568L18.5311 21.5549C19.0649 21.3398 19.5564 21.0384 19.9903 20.6563C20.4223 20.2762 20.7948 19.8154 21.077 19.3094C21.4034 18.7277 21.6117 18.071 21.6866 17.4038L21.7106 17.1398C21.7145 17.0602 21.7154 16.9728 21.7154 16.8326C21.7154 16.6915 21.7145 16.6022 21.7106 16.5226ZM20.7391 17.2618C20.6412 18.2045 20.2226 19.0819 19.5487 19.7568C18.917 20.3885 18.1058 20.7955 17.2303 20.9232L17.0546 20.9462C16.8924 20.9635 16.8463 20.9645 16.6207 20.9645C16.3903 20.9635 16.325 20.9597 16.1561 20.9405L15.917 20.9069C15.3612 20.8109 14.8313 20.6006 14.3561 20.2886C13.3596 19.6349 12.6914 18.5779 12.5282 17.4019C12.5004 17.2032 12.4927 17.0794 12.4927 16.8326C12.4927 16.6157 12.4956 16.5562 12.5119 16.4006L12.5378 16.2C12.6905 15.2083 13.1993 14.304 13.9788 13.6531C14.4194 13.2864 14.9465 13.007 15.4927 12.8525C15.7951 12.767 16.0725 12.7219 16.4345 12.6989C16.495 12.696 16.8626 12.7008 16.9356 12.7056C17.3695 12.7421 17.7641 12.8333 18.1423 12.983C18.7903 13.2403 19.3567 13.6493 19.8041 14.185C20.3292 14.8147 20.6546 15.5875 20.7391 16.4026C20.7554 16.5629 20.7583 16.6118 20.7583 16.8326C20.7583 17.0525 20.7554 17.1014 20.7391 17.2618ZM15.9007 6.36575C15.9324 6.14495 15.8028 5.92799 15.5897 5.84735L15.5378 5.83008L12.0943 5.82624C9.36503 5.82624 8.64407 5.82816 8.61143 5.8368C8.51351 5.86368 8.41367 5.92895 8.35799 6.00383C8.15159 6.27647 8.27735 6.6576 8.60663 6.75936C8.65751 6.77376 8.78423 6.77376 12.0809 6.77376C15.3785 6.77376 15.5052 6.77376 15.5561 6.75936C15.7414 6.70175 15.8738 6.55103 15.9007 6.36575ZM19.733 16.5686C19.6361 16.2768 19.3836 16.0541 19.0802 16.0013C19.0476 15.9955 19.0034 15.9926 18.9593 15.9907L18.8354 15.9936C18.5465 16.031 18.2988 16.2058 18.1721 16.4669C18.1145 16.5888 18.0914 16.6954 18.0914 16.8326C18.0914 16.969 18.1145 17.0755 18.1721 17.1974C18.2882 17.4384 18.5052 17.6035 18.7673 17.6582C18.8556 17.6774 18.9919 17.6794 19.0812 17.663L19.0802 17.6611C19.3855 17.6054 19.6361 17.3904 19.733 17.0957C19.7628 17.0074 19.7733 16.9267 19.7733 16.8326C19.7733 16.7856 19.7714 16.7414 19.7647 16.6982L19.733 16.5686ZM6.18647 20.16L6.10007 20.137C5.71895 20.0314 5.44151 19.7126 5.39351 19.3267C5.38775 19.2749 5.38391 18.9878 5.38391 18.4819C5.38391 17.6371 5.38583 17.6669 5.32919 17.5536C5.27351 17.4403 5.13911 17.3366 5.01335 17.3107C4.94231 17.2954 4.80983 17.303 4.74647 17.3261C4.63799 17.3664 4.54103 17.4509 4.48631 17.5536C4.42871 17.663 4.42967 17.6467 4.42967 18.5136C4.42967 19.0003 4.43351 19.3306 4.43927 19.3901C4.48151 19.8326 4.67639 20.2483 4.98839 20.5594C5.14103 20.713 5.29751 20.8243 5.49719 20.9232C5.69207 21.0211 5.90423 21.0826 6.12215 21.1094C6.18167 21.1152 8.86295 21.1181 11.6662 21.1181C11.4098 20.8205 11.1794 20.4998 10.9798 20.16H6.18647ZM16.9135 16.0406L16.7926 16.0051H16.7906C16.7206 15.9917 16.6063 15.985 16.5334 15.9936C16.349 16.0147 16.1782 16.0934 16.0438 16.2211C15.9161 16.344 15.8354 16.4909 15.799 16.6637C15.7836 16.7366 15.7797 16.8355 15.7874 16.92L15.799 16.9987C15.8354 17.1715 15.917 17.3203 16.0447 17.4432C16.1618 17.5546 16.2991 17.6246 16.4585 17.6582C16.5545 17.6794 16.6956 17.6794 16.7916 17.6582C16.951 17.6246 17.0892 17.5546 17.2063 17.4432C17.334 17.3203 17.4146 17.1715 17.4521 16.9987C17.4674 16.9267 17.4703 16.8288 17.4626 16.7443L17.4521 16.6637C17.3897 16.3728 17.1871 16.1395 16.9135 16.0406ZM15.1452 16.6694L15.1097 16.5456C15.0079 16.2691 14.7794 16.0656 14.4818 16.0051C14.4444 15.9974 14.3974 15.9926 14.3513 15.9907L14.2188 15.9936C13.9337 16.0291 13.6889 16.2048 13.5631 16.4563L13.517 16.5686C13.4873 16.657 13.4767 16.7376 13.4767 16.8326C13.4767 16.9718 13.5055 17.0957 13.5698 17.2195L13.6121 17.2925C13.8415 17.6458 14.3081 17.7782 14.693 17.5862L14.7785 17.5382C14.9686 17.4144 15.0962 17.2224 15.1452 16.9949C15.1558 16.943 15.1586 16.8797 15.1586 16.8326C15.1586 16.8086 15.1577 16.7808 15.1558 16.753L15.1452 16.6694Z" fill="white"/>
</svg>
