<svg width="24" height="24" viewBox="0 0 24 24" fill="none" xmlns="http://www.w3.org/2000/svg">
<path d="M13.52 19.8901C13.24 19.8901 13.01 20.1204 13.01 20.4004C13.01 20.7304 12.74 20.9902 12.42 20.9902H3.59999C3.26999 20.9902 3.00999 20.7204 3.00999 20.4004V7.16992C3.00999 6.83992 3.27999 6.58008 3.59999 6.58008H7.82999C8.10999 6.58008 8.33998 6.35031 8.33998 6.07031C8.33998 5.79031 8.10999 5.56006 7.82999 5.56006H3.59999C2.70999 5.56006 1.98999 6.27992 1.98999 7.16992V20.4004C1.98999 21.2904 2.70999 22.0103 3.59999 22.0103H12.41C13.3 22.0103 14.02 21.2904 14.02 20.4004C14.03 20.1204 13.8 19.8901 13.52 19.8901ZM7.85999 15.3301H5.09999C4.87999 15.3301 4.69998 15.51 4.69998 15.73C4.69998 15.95 4.87999 16.1304 5.09999 16.1304H7.85999C8.07999 16.1304 8.25999 15.95 8.25999 15.73C8.25999 15.51 8.07999 15.3301 7.85999 15.3301ZM8.77998 11.5103H14.3L12.99 13.0601C12.81 13.2701 12.83 13.6003 13.05 13.7803C13.15 13.8603 13.26 13.9004 13.38 13.9004C13.52 13.9004 13.67 13.8402 13.77 13.7202L15.79 11.3301C15.95 11.1401 15.95 10.8599 15.79 10.6699L13.77 8.28027C13.59 8.07027 13.27 8.04022 13.05 8.22021C12.84 8.40021 12.81 8.71994 12.99 8.93994L14.3 10.4902H8.77998C8.49998 10.4902 8.26999 10.72 8.26999 11C8.26999 11.28 8.49998 11.5103 8.77998 11.5103ZM7.85999 17.5303H5.09999C4.87999 17.5303 4.69998 17.7102 4.69998 17.9302C4.69998 18.1502 4.87999 18.3301 5.09999 18.3301H7.85999C8.07999 18.3301 8.25999 18.1502 8.25999 17.9302C8.25999 17.7102 8.07999 17.5303 7.85999 17.5303ZM21.65 6.88037L17.12 2.3501C16.88 2.1201 16.57 1.99023 16.24 1.99023H11.4C10.51 1.99023 9.78999 2.7101 9.78999 3.6001V8.56006C9.78999 8.84006 10.02 9.07031 10.3 9.07031C10.58 9.07031 10.81 8.84006 10.81 8.56006V3.6001C10.81 3.2701 11.08 3.01025 11.4 3.01025H15.83C15.82 3.05025 15.8 3.09014 15.8 3.14014V6.81006C15.8 7.70006 16.52 8.41992 17.41 8.41992H20.9C20.93 8.41992 20.95 8.41039 20.98 8.40039V16.8301C20.98 17.1601 20.71 17.4199 20.39 17.4199H11.39C11.06 17.4199 10.8 17.1501 10.8 16.8301V13.79C10.8 13.51 10.57 13.2803 10.29 13.2803C10.01 13.2803 9.77998 13.51 9.77998 13.79V16.8301C9.77998 17.7201 10.5 18.4399 11.39 18.4399H20.39C21.28 18.4399 22 17.7201 22 16.8301V7.76025C22.01 7.43025 21.88 7.12037 21.65 6.88037ZM17.42 7.40039C17.09 7.40039 16.83 7.13006 16.83 6.81006V3.51025L20.73 7.41016H17.42V7.40039ZM5.10999 11.4502H6.94998C7.16998 11.4502 7.34999 11.2703 7.34999 11.0503C7.34999 10.8303 7.16998 10.6504 6.94998 10.6504H5.10999C4.88999 10.6504 4.70999 10.8303 4.70999 11.0503C4.70999 11.2703 4.87999 11.4502 5.10999 11.4502ZM7.85999 13.04H5.09999C4.87999 13.04 4.69998 13.2199 4.69998 13.4399C4.69998 13.6599 4.87999 13.8403 5.09999 13.8403H7.85999C8.07999 13.8403 8.25999 13.6599 8.25999 13.4399C8.25999 13.2199 8.07999 13.04 7.85999 13.04Z" fill="white"/>
</svg>
