<svg width="24" height="24" viewBox="0 0 24 24" fill="none" xmlns="http://www.w3.org/2000/svg">
<path d="M7.64996 4.72998C7.64996 4.62618 7.73605 4.54004 7.83997 4.54004H16.15C16.2539 4.54004 16.34 4.62618 16.34 4.72998V10.27C16.34 10.5462 16.5638 10.77 16.84 10.77C17.1161 10.77 17.34 10.5462 17.34 10.27V4.72998C17.34 4.07378 16.806 3.54004 16.15 3.54004H7.83997C7.18388 3.54004 6.64996 4.07378 6.64996 4.72998V10.27C6.64996 10.5462 6.87382 10.77 7.14996 10.77C7.42611 10.77 7.64996 10.5462 7.64996 10.27V4.72998Z" fill="white"/>
<path fill-rule="evenodd" clip-rule="evenodd" d="M4.79034 8.91757C4.96288 9.13317 4.92799 9.44782 4.71239 9.62037L3.97583 10.2099C3.9843 10.2158 3.99263 10.222 4.00083 10.2285L11.459 16.1469C11.7774 16.3943 12.2118 16.3944 12.5304 16.1474L15.1016 14.0918C15.1178 14.069 15.136 14.0472 15.1565 14.0268C15.2044 13.9789 15.2596 13.9428 15.3185 13.9184L19.9956 10.1791L19.2976 9.62037C19.082 9.44782 19.0471 9.13317 19.2196 8.91757C19.3922 8.70198 19.7068 8.66708 19.9224 8.83963L20.9518 9.66347C21.2814 9.88004 21.5 10.2456 21.5 10.6602V18.5801C21.5 19.6163 20.6561 20.46 19.62 20.46H4.38995C3.35384 20.46 2.51001 19.6163 2.51001 18.5801V10.6602C2.51001 10.2593 2.71732 9.87506 3.06371 9.65902L4.08754 8.83963C4.30314 8.66708 4.61779 8.70198 4.79034 8.91757ZM3.51001 18.5801V11.1156L7.93555 14.6275L3.59884 18.9641C3.54198 18.8479 3.51001 18.7176 3.51001 18.5801ZM19.62 19.46H4.51722L8.72405 15.2533L10.8392 16.9317L10.8425 16.9343C11.5232 17.4653 12.4668 17.4653 13.1475 16.9343L15.4867 15.0642L19.8515 19.4289C19.7777 19.4491 19.7 19.46 19.62 19.46ZM20.5 18.5801C20.5 18.6069 20.4988 18.6334 20.4964 18.6596L16.2726 14.4359L20.5 11.0561V18.5801Z" fill="white"/>
<path d="M9.76001 10.27C9.76001 9.99388 9.98387 9.77002 10.26 9.77002H13.72C13.9961 9.77002 14.22 9.99388 14.22 10.27C14.22 10.5462 13.9961 10.77 13.72 10.77H10.26C9.98387 10.77 9.76001 10.5462 9.76001 10.27Z" fill="white"/>
<path d="M10.26 6.6499C9.98387 6.6499 9.76001 6.87376 9.76001 7.1499C9.76001 7.42604 9.98387 7.6499 10.26 7.6499H13.72C13.9961 7.6499 14.22 7.42604 14.22 7.1499C14.22 6.87376 13.9961 6.6499 13.72 6.6499H10.26Z" fill="white"/>
</svg>
