<svg width="24" height="24" viewBox="0 0 24 24" fill="none" xmlns="http://www.w3.org/2000/svg">
<path d="M18.97 12.9V19.49C18.97 20.32 18.3 20.99 17.47 20.99H4.46997C3.63997 20.99 2.96997 20.32 2.96997 19.49V6.50001C2.96997 5.67001 3.63997 5.00001 4.46997 5.00001H11.03C11.31 5.00001 11.53 5.22001 11.53 5.50001C11.53 5.78001 11.31 6.00001 11.03 6.00001H4.46997C4.18997 6.00001 3.96997 6.22001 3.96997 6.50001V19.5C3.96997 19.78 4.18997 20 4.46997 20H17.47C17.75 20 17.97 19.78 17.97 19.5V12.91C17.97 12.63 18.19 12.41 18.47 12.41C18.75 12.41 18.97 12.63 18.97 12.91V12.9ZM20.52 3.01001H13.52C13.24 3.01001 13.02 3.23001 13.02 3.51001C13.02 3.79001 13.24 4.01001 13.52 4.01001H19.31L14.92 8.40001C14.72 8.60001 14.72 8.91001 14.92 9.11001C15.12 9.31001 15.43 9.31001 15.63 9.11001L20.02 4.72001V10.51C20.02 10.79 20.24 11.01 20.52 11.01C20.8 11.01 21.02 10.79 21.02 10.51V3.51001C21.02 3.23001 20.8 3.01001 20.52 3.01001ZM11.38 11.93C11.18 12.13 11.18 12.44 11.38 12.64C11.58 12.84 11.89 12.84 12.09 12.64C12.29 12.44 12.29 12.13 12.09 11.93C11.89 11.74 11.58 11.74 11.38 11.93ZM13.45 11.28L14.27 10.46C14.47 10.26 14.47 9.95001 14.27 9.75001C14.07 9.55001 13.76 9.55001 13.56 9.75001L12.74 10.57C12.54 10.77 12.54 11.08 12.74 11.28C12.94 11.48 13.25 11.48 13.45 11.28Z" fill="white"/>
</svg>
