<svg width="24" height="24" viewBox="0 0 24 24" fill="none" xmlns="http://www.w3.org/2000/svg">
<path d="M18 18.6958C17.72 18.6958 17.5 18.9184 17.5 19.2017C17.5 19.4851 17.72 19.7077 18 19.7077H19C19.28 19.7077 19.5 19.4851 19.5 19.2017C19.5 18.9184 19.28 18.6958 19 18.6958H18Z" fill="white"/>
<path fill-rule="evenodd" clip-rule="evenodd" d="M5 6.04747H7V4.02374C7 2.91068 7.9 2 9 2H15C16.1 2 17 2.91068 17 4.02374V6.04747H19C20.1 6.04747 21 6.95815 21 8.07121V9.58901C21 9.87233 20.78 10.0949 20.5 10.0949C20.22 10.0949 20 9.87233 20 9.58901V8.07121C20 7.51468 19.55 7.05934 19 7.05934H5C4.45 7.05934 4 7.51468 4 8.07121V14.1424C4 14.6989 4.45 15.1543 5 15.1543H5.5C5.78 15.1543 6 15.3769 6 15.6602C6 15.9435 5.78 16.1662 5.5 16.1662H5C3.9 16.1662 3 15.2555 3 14.1424V8.07121C3 6.95815 3.89 6.04747 5 6.04747ZM9 3.01187C8.45 3.01187 8 3.46721 8 4.02374V6.04747H16V4.02374C16 3.46721 15.55 3.01187 15 3.01187H9Z" fill="white"/>
<path d="M6.5 12.1187C6.22 12.1187 6 12.3413 6 12.6246C6 12.9079 6.22 13.1305 6.5 13.1305H7V18.1899C7 19.3029 7.9 20.2136 9 20.2136H13.5C13.78 20.2136 14 19.991 14 19.7077C14 19.4243 13.78 19.2017 13.5 19.2017H9C8.45 19.2017 8 18.7464 8 18.1899V13.1305H13.5C13.78 13.1305 14 12.9079 14 12.6246C14 12.3413 13.78 12.1187 13.5 12.1187H6.5Z" fill="white"/>
<path d="M9 17.1781C9 16.8947 9.22 16.6721 9.5 16.6721H13.5C13.78 16.6721 14 16.8947 14 17.1781C14 17.4614 13.78 17.684 13.5 17.684H9.5C9.22 17.684 9 17.4614 9 17.1781Z" fill="white"/>
<path d="M9 15.1542C9 14.8709 9.22 14.6483 9.5 14.6483H13.5C13.78 14.6483 14 14.8709 14 15.1542C14 15.4376 13.78 15.6602 13.5 15.6602H9.5C9.22 15.6602 9 15.4376 9 15.1542Z" fill="white"/>
<path fill-rule="evenodd" clip-rule="evenodd" d="M17 11.1068C15.9 11.1068 15 12.0175 15 13.1305V19.2018C15 20.3148 15.9 21.2255 17 21.2255H20C21.1 21.2255 22 20.3148 22 19.2018V13.1305C22 12.0175 21.1 11.1068 20 11.1068H17ZM20 12.1187H17C16.45 12.1187 16 12.574 16 13.1305V19.2018C16 19.7583 16.45 20.2136 17 20.2136H20C20.55 20.2136 21 19.7583 21 19.2018V13.1305C21 12.574 20.55 12.1187 20 12.1187Z" fill="white"/>
<path d="M5.5 8.07117C5.22 8.07117 5 8.29378 5 8.5771C5 8.86042 5.22 9.08303 5.5 9.08303H6.5C6.78 9.08303 7 8.86042 7 8.5771C7 8.29378 6.78 8.07117 6.5 8.07117H5.5Z" fill="white"/>
</svg>
