<svg width="24" height="24" viewBox="0 0 24 24" fill="none" xmlns="http://www.w3.org/2000/svg">
<path d="M11.5 13.5C11.2239 13.5 11 13.7239 11 14C11 14.2761 11.2239 14.5 11.5 14.5H16C16.2761 14.5 16.5 14.2761 16.5 14C16.5 13.7239 16.2761 13.5 16 13.5H11.5Z" fill="white"/>
<path d="M7.03 14.25C6.24351 14.25 5.5674 14.7647 5.3233 15.4813C5.23425 15.7427 4.95017 15.8824 4.68877 15.7934C4.42738 15.7043 4.28767 15.4202 4.37671 15.1588C4.75261 14.0554 5.79649 13.25 7.03 13.25C8.17749 13.25 9.16074 13.9457 9.59689 14.9271C9.70904 15.1794 9.59539 15.4749 9.34305 15.587C9.09071 15.6992 8.79523 15.5855 8.68308 15.3332C8.39923 14.6945 7.76251 14.25 7.03 14.25Z" fill="white"/>
<path d="M11.5 11.5C11.2239 11.5 11 11.7239 11 12C11 12.2761 11.2239 12.5 11.5 12.5H19C19.2761 12.5 19.5 12.2761 19.5 12C19.5 11.7239 19.2761 11.5 19 11.5H11.5Z" fill="white"/>
<path d="M11 10C11 9.72386 11.2239 9.5 11.5 9.5H19C19.2761 9.5 19.5 9.72386 19.5 10C19.5 10.2761 19.2761 10.5 19 10.5H11.5C11.2239 10.5 11 10.2761 11 10Z" fill="white"/>
<path fill-rule="evenodd" clip-rule="evenodd" d="M7.03 8.18994C5.73753 8.18994 4.69 9.23805 4.69 10.5303C4.69 11.8227 5.73771 12.8701 7.03 12.8701C8.32229 12.8701 9.37 11.8227 9.37 10.5303C9.37 9.23805 8.32246 8.18994 7.03 8.18994ZM5.69 10.5303C5.69 9.79009 6.29006 9.18994 7.03 9.18994C7.76994 9.18994 8.37 9.79009 8.37 10.5303C8.37 11.2703 7.77011 11.8701 7.03 11.8701C6.28988 11.8701 5.69 11.2703 5.69 10.5303Z" fill="white"/>
<path fill-rule="evenodd" clip-rule="evenodd" d="M4 5.75C2.89386 5.75 2 6.64386 2 7.75V16.25C2 17.3561 2.89386 18.25 4 18.25H20C21.1061 18.25 22 17.3561 22 16.25V7.75C22 6.64386 21.1061 5.75 20 5.75H4ZM3 7.75C3 7.19614 3.44614 6.75 4 6.75H20C20.5539 6.75 21 7.19614 21 7.75V16.25C21 16.8039 20.5539 17.25 20 17.25H4C3.44614 17.25 3 16.8039 3 16.25V7.75Z" fill="white"/>
</svg>
