<svg width="24" height="24" viewBox="0 0 24 24" fill="none" xmlns="http://www.w3.org/2000/svg">
<path d="M17.5 11H6.5C6.22 11 6 10.78 6 10.5C6 10.22 6.22 10 6.5 10H17.5C17.78 10 18 10.22 18 10.5C18 10.78 17.77 11 17.5 11ZM18 13.5C18 13.22 17.78 13 17.5 13H6.5C6.22 13 6 13.22 6 13.5C6 13.78 6.22 14 6.5 14H17.5C17.77 14 18 13.78 18 13.5ZM14 16.5C14 16.22 13.78 16 13.5 16H6.5C6.22 16 6 16.22 6 16.5C6 16.78 6.22 17 6.5 17H13.5C13.77 17 14 16.78 14 16.5ZM12 4C10.75 4 9.62 4.80023 9.19 5.99023C8.97 6.60023 8.39999 7 7.76999 7H5C4.45 7 4 7.45 4 8V18.9902C4 19.5402 4.45 19.9902 5 19.9902H18.99C19.54 19.9902 19.99 19.5402 19.99 18.9902V8C19.99 7.45 19.54 7 18.99 7H16.22C15.59 7 15.02 6.59023 14.81 5.99023C14.38 4.80023 13.25 4 12 4ZM12 3C13.73 3 15.2 4.1099 15.75 5.6499C15.82 5.8499 16 6 16.22 6H18.99C20.1 6 20.99 6.9 20.99 8V18.9902C20.99 20.1002 20.09 20.9902 18.99 20.9902H5C3.89 20.9902 3 20.0902 3 18.9902V8C3 6.89 3.9 6 5 6H7.76999C7.98999 6 8.16999 5.8499 8.23999 5.6499C8.79999 4.1099 10.27 3 12 3ZM12 6C11.45 6 11 6.45 11 7C11 7.55 11.45 8 12 8C12.55 8 13 7.55 13 7C13 6.45 12.55 6 12 6Z" fill="white"/>
</svg>
