<svg width="24" height="24" viewBox="0 0 24 24" fill="none" xmlns="http://www.w3.org/2000/svg">
<path d="M18.0801 11H8.00008V6.75C8.00008 4.68 9.79008 3 12.0001 3C14.2101 3 16.0001 4.68 16.0001 6.75V7.5C16.0001 7.78 16.2201 8 16.5001 8C16.7801 8 17.0001 7.78 17.0001 7.5V6.75C17.0001 4.13 14.7601 2 12.0001 2C9.24008 2 7.00008 4.13 7.00008 6.75V11H6.08008C4.98008 11 4.08008 11.9 4.08008 13V20C4.08008 21.1 4.98008 22 6.08008 22H18.0801C19.1801 22 20.0801 21.1 20.0801 20V13C20.0801 11.89 19.1801 11 18.0801 11ZM19.0801 20C19.0801 20.55 18.6301 21 18.0801 21H6.08008C5.53008 21 5.08008 20.55 5.08008 20V13C5.08008 12.45 5.53008 12 6.08008 12H18.0801C18.6301 12 19.0801 12.45 19.0801 13V20ZM13.0001 15C13.0001 15.37 12.8001 15.6901 12.5001 15.8701V18.5C12.5001 18.78 12.2801 19 12.0001 19C11.7201 19 11.5001 18.78 11.5001 18.5V15.8701C11.2001 15.7001 11.0001 15.37 11.0001 15C11.0001 14.45 11.4501 14 12.0001 14C12.5501 14 13.0001 14.45 13.0001 15Z" fill="white"/>
</svg>
