<svg width="24" height="24" viewBox="0 0 24 24" fill="none" xmlns="http://www.w3.org/2000/svg">
<path fill-rule="evenodd" clip-rule="evenodd" d="M14.4367 8.63586C14.1605 8.63586 13.9367 8.85972 13.9367 9.13586C13.9367 9.41201 14.1605 9.63586 14.4367 9.63586H16.6459V11.5079C16.6459 12.226 17.2128 12.9086 17.9857 12.9086H20.0049V16.8924C20.0049 17.0988 19.837 17.2532 19.6652 17.2532H14.4367C14.1605 17.2532 13.9367 17.477 13.9367 17.7532C13.9367 18.0293 14.1605 18.2532 14.4367 18.2532H19.6652C20.4131 18.2532 21.0049 17.6269 21.0049 16.8924V12.4115L21.0049 12.4086C21.0049 12.2673 20.9463 12.1397 20.852 12.0488L17.4965 8.77941C17.4063 8.69063 17.2825 8.63586 17.1459 8.63586H14.4367ZM17.6459 10.3211V11.5079C17.6459 11.7505 17.8388 11.9086 17.9857 11.9086H19.2752L17.6459 10.3211Z" fill="white"/>
<path d="M10.9977 6.0332H4.99942C3.89974 6.0332 3 6.93397 3 8.0349V20.0451C3 21.146 3.89974 22.0468 4.99942 22.0468H10.9977C12.0974 22.0468 12.9971 21.146 12.9971 20.0451V8.0349C12.9971 6.93397 12.0974 6.0332 10.9977 6.0332ZM11.9974 20.0451C11.9974 20.5955 11.5475 21.0459 10.9977 21.0459H4.99942C4.44958 21.0459 3.99971 20.5955 3.99971 20.0451V8.0349C3.99971 7.48443 4.44958 7.03405 4.99942 7.03405H10.9977C11.5475 7.03405 11.9974 7.48443 11.9974 8.0349V20.0451ZM9.46812 19.5447C9.46812 19.8249 9.24819 20.0451 8.96827 20.0451H6.96885C6.68893 20.0451 6.46899 19.8249 6.46899 19.5447C6.46899 19.2644 6.68893 19.0442 6.96885 19.0442H8.96827C9.24819 19.0442 9.46812 19.2744 9.46812 19.5447Z" fill="white"/>
<path fill-rule="evenodd" clip-rule="evenodd" d="M4.95929 9.99659C4.95929 9.26212 5.55112 8.63586 6.29904 8.63586H10.4678C10.744 8.63586 10.9678 8.85972 10.9678 9.13586C10.9678 9.41201 10.744 9.63586 10.4678 9.63586H6.29904C6.12723 9.63586 5.95929 9.79027 5.95929 9.99659V16.8924C5.95929 17.0752 6.09335 17.2532 6.37904 17.2532H10.4578C10.734 17.2532 10.9578 17.477 10.9578 17.7532C10.9578 18.0293 10.734 18.2532 10.4578 18.2532H6.37904C5.58504 18.2532 4.95929 17.6705 4.95929 16.8924V9.99659Z" fill="white"/>
<path fill-rule="evenodd" clip-rule="evenodd" d="M12.6222 2.00022C13.7203 1.98877 14.7583 2.41476 15.5704 3.22776C16.3797 4.03803 16.8192 5.07769 16.7962 6.18371C16.7905 6.45979 16.562 6.67895 16.2859 6.6732C16.0098 6.66745 15.7907 6.43899 15.7964 6.16291C15.8134 5.3473 15.4931 4.56542 14.8629 3.93447C14.2354 3.30625 13.4539 2.99161 12.6326 3.00017C12.3565 3.00305 12.1303 2.78154 12.1274 2.50541C12.1245 2.22928 12.3461 2.0031 12.6222 2.00022Z" fill="white"/>
<path fill-rule="evenodd" clip-rule="evenodd" d="M14.0787 4.71719C13.4933 4.13224 12.7225 3.91027 11.9993 3.92194C11.7232 3.9264 11.503 4.15385 11.5074 4.42995C11.5119 4.70606 11.7393 4.92627 12.0154 4.92181C12.5311 4.91349 13.0191 5.07137 13.3731 5.42579L13.3769 5.42958C13.7221 5.76777 13.8767 6.26133 13.8767 6.7939C13.8767 7.07004 14.1006 7.2939 14.3767 7.2939C14.6529 7.2939 14.8767 7.07004 14.8767 6.7939C14.8767 6.08618 14.6718 5.29959 14.0787 4.71719Z" fill="white"/>
</svg>
