<svg width="24" height="24" viewBox="0 0 24 24" fill="none" xmlns="http://www.w3.org/2000/svg">
<path d="M3 5.5C3 5.22 3.22 5 3.5 5H11.5C11.78 5 12 5.22 12 5.5C12 5.78 11.78 6 11.5 6H3.5C3.22 6 3 5.78 3 5.5ZM3.5 12.5H5.5C5.78 12.5 6 12.28 6 12C6 11.72 5.78 11.5 5.5 11.5H3.5C3.22 11.5 3 11.72 3 12C3 12.28 3.22 12.5 3.5 12.5ZM13 5.5C13 4.12 14.12 3 15.5 3C16.71 3 17.72 3.86 17.95 5H20.5C20.78 5 21 5.22 21 5.5C21 5.78 20.78 6 20.5 6H17.95C17.72 7.14 16.71 8 15.5 8C14.12 8 13 6.88 13 5.5ZM14 5.5C14 6.33 14.67 7 15.5 7C15.52 7 15.55 7 15.57 7C15.58 7 15.59 7 15.6 7C15.62 7 15.63 7 15.65 7C15.66 7 15.67 7 15.68 7C15.69 7 15.71 7 15.72 7C15.73 7 15.74 6.99975 15.76 6.98975C15.77 6.98975 15.78 6.98998 15.79 6.97998C15.8 6.97998 15.82 6.97973 15.83 6.96973C15.84 6.96973 15.85 6.96996 15.86 6.95996C15.87 6.95996 15.89 6.94971 15.9 6.94971C16.54 6.77971 17.01 6.2 17.01 5.5C17.01 4.81 16.54 4.2198 15.9 4.0498C15.89 4.0498 15.87 4.04004 15.86 4.04004C15.85 4.04004 15.84 4.03979 15.83 4.02979C15.82 4.02979 15.8 4.03002 15.79 4.02002C15.78 4.02002 15.77 4.01977 15.76 4.00977C15.75 4.00977 15.74 4.01 15.72 4C15.71 4 15.69 4 15.68 4C15.67 4 15.66 4 15.65 4C15.64 4 15.62 4 15.6 4C15.59 4 15.58 4 15.57 4C15.55 4 15.52 4 15.5 4C14.67 4 14 4.68 14 5.5ZM21 12C21 12.28 20.78 12.5 20.5 12.5H11.95C11.71 13.65 10.7 14.5 9.5 14.5C8.14 14.5 7.01 13.3898 7 12.0298V12C7 10.62 8.12 9.5 9.5 9.5C10.71 9.5 11.72 10.36 11.95 11.5H20.5C20.78 11.5 21 11.73 21 12ZM11 12.02C11 11.18 10.33 10.5 9.5 10.5C8.67 10.5 8 11.17 8 12V12.02C8.01 12.83 8.68 13.5 9.5 13.5C10.32 13.5 10.99 12.84 11 12.02ZM11.5 18H3.5C3.22 18 3 18.22 3 18.5C3 18.78 3.22 19 3.5 19H11.5C11.78 19 12 18.78 12 18.5C12 18.22 11.78 18 11.5 18ZM21 18.5C21 18.78 20.78 19 20.5 19H17.95C17.72 20.14 16.71 21 15.5 21C14.12 21 13 19.88 13 18.5C13 17.12 14.12 16 15.5 16C16.71 16 17.72 16.86 17.95 18H20.5C20.78 18 21 18.23 21 18.5ZM17 18.5C17 17.81 16.53 17.2198 15.89 17.0498C15.88 17.0498 15.86 17.04 15.85 17.04C15.84 17.04 15.83 17.0398 15.82 17.0298C15.81 17.0298 15.79 17.03 15.78 17.02C15.77 17.02 15.76 17.0198 15.75 17.0098C15.74 17.0098 15.73 17.01 15.71 17C15.7 17 15.68 17 15.67 17C15.66 17 15.65 17 15.64 17C15.63 17 15.61 17 15.59 17C15.58 17 15.57 17 15.56 17C15.54 17 15.51 17 15.49 17C14.66 17 13.99 17.67 13.99 18.5C13.99 19.33 14.66 20 15.49 20C15.51 20 15.54 20 15.56 20C15.57 20 15.58 20 15.59 20C15.61 20 15.62 20 15.64 20C15.65 20 15.66 20 15.67 20C15.68 20 15.7 20 15.71 20C15.72 20 15.73 19.9997 15.75 19.9897C15.76 19.9897 15.77 19.99 15.78 19.98C15.79 19.98 15.81 19.9797 15.82 19.9697C15.83 19.9697 15.84 19.97 15.85 19.96C15.86 19.96 15.88 19.9497 15.89 19.9497C16.53 19.7797 17 19.2 17 18.5Z" fill="white"/>
</svg>
