<svg width="24" height="24" viewBox="0 0 24 24" fill="none" xmlns="http://www.w3.org/2000/svg">
<path d="M13.94 9.71997C13.94 10.1397 13.5997 10.48 13.18 10.48C12.7603 10.48 12.42 10.1397 12.42 9.71997C12.42 9.30023 12.7603 8.95996 13.18 8.95996C13.5997 8.95996 13.94 9.30023 13.94 9.71997Z" fill="white"/>
<path fill-rule="evenodd" clip-rule="evenodd" d="M10.63 10.1499H10.66C10.93 10.1499 11.19 10.27 11.36 10.48L12.81 11.8901L13.54 11.28C13.68 11.14 13.89 11.0601 14.11 11.0601C14.125 11.0601 14.1425 11.0626 14.16 11.0651C14.1775 11.0676 14.195 11.0701 14.21 11.0701C14.46 11.1001 14.69 11.24 14.83 11.45L16.25 13.97C16.26 13.98 16.27 13.99 16.27 14V14.01C16.27 14.015 16.2725 14.02 16.275 14.025C16.2775 14.03 16.28 14.035 16.28 14.04V14.0701C16.29 14.0701 16.29 14.0801 16.29 14.0901V14.1001C16.3 14.1101 16.3 14.1201 16.3 14.1301V14.28C16.29 14.29 16.29 14.29 16.29 14.3C16.28 14.31 16.28 14.3101 16.28 14.3201C16.27 14.33 16.27 14.3301 16.27 14.34C16.27 14.345 16.2675 14.3476 16.265 14.3501C16.2625 14.3526 16.26 14.3551 16.26 14.3601C16.26 14.3651 16.2575 14.3676 16.255 14.3701C16.2525 14.3726 16.25 14.3751 16.25 14.3801C16.25 14.3851 16.2475 14.3876 16.245 14.39C16.2425 14.3925 16.24 14.3949 16.24 14.3999C16.24 14.4049 16.2375 14.4074 16.235 14.4099C16.2325 14.4124 16.23 14.4149 16.23 14.4199C16.23 14.4249 16.2275 14.4274 16.225 14.4299C16.2225 14.4324 16.22 14.4349 16.22 14.4399C16.22 14.4449 16.2175 14.4474 16.215 14.45C16.2125 14.4525 16.21 14.455 16.21 14.46C16.21 14.465 16.2075 14.4675 16.205 14.47C16.2025 14.4725 16.2 14.475 16.2 14.48C16.2 14.49 16.19 14.5 16.19 14.5L16.16 14.53C16.155 14.535 16.15 14.5375 16.145 14.54C16.14 14.5425 16.135 14.545 16.13 14.55H16.12C16.11 14.56 16.09 14.5701 16.07 14.5801C16.065 14.5801 16.0625 14.5826 16.06 14.5851C16.0575 14.5876 16.055 14.5901 16.05 14.5901C16.05 14.6001 16.04 14.6001 16.04 14.6001C16.035 14.6001 16.03 14.6026 16.025 14.6051C16.02 14.6076 16.015 14.6101 16.01 14.6101H16C15.995 14.6101 15.99 14.6126 15.985 14.6151C15.98 14.6176 15.975 14.6201 15.97 14.6201H15.96C15.94 14.6301 15.93 14.6301 15.92 14.6301H8.04001C8.03001 14.6201 8.02001 14.6201 8.01001 14.6201H8C7.99 14.6101 7.98 14.6101 7.97 14.6101C7.96006 14.6002 7.95999 14.6001 7.95001 14.6001C7.94501 14.6001 7.94251 14.5976 7.94 14.5951C7.9375 14.5926 7.93499 14.5901 7.92999 14.5901C7.92499 14.5901 7.9225 14.5876 7.92 14.5851C7.9175 14.5826 7.915 14.5801 7.91 14.5801C7.905 14.5801 7.90251 14.5776 7.90001 14.5751C7.89751 14.5726 7.89501 14.5701 7.89001 14.5701C7.88501 14.5701 7.88251 14.5676 7.88 14.5651C7.8775 14.5626 7.875 14.5601 7.87 14.5601C7.87 14.5501 7.86002 14.55 7.86002 14.55L7.84 14.53L7.83002 14.52C7.82502 14.52 7.82251 14.5175 7.82001 14.515C7.8175 14.5125 7.815 14.51 7.81 14.51C7.8 14.51 7.79001 14.5 7.79001 14.5L7.78 14.49C7.77619 14.4862 7.77237 14.4838 7.76912 14.4818C7.76383 14.4785 7.76001 14.4762 7.76001 14.47C7.76001 14.465 7.75751 14.4625 7.755 14.46C7.7525 14.4575 7.75 14.455 7.75 14.45C7.75 14.445 7.74751 14.4424 7.74501 14.4399C7.74252 14.4374 7.74002 14.4349 7.74002 14.4299C7.74002 14.4249 7.73752 14.4224 7.73502 14.4199C7.73251 14.4174 7.73001 14.4149 7.73001 14.4099C7.73001 14.4049 7.72751 14.4025 7.72501 14.4C7.7225 14.3976 7.72 14.3951 7.72 14.3901C7.72 14.3851 7.7175 14.3801 7.715 14.3751C7.71249 14.3701 7.70999 14.3651 7.70999 14.3601V14.3501C7.70999 14.3451 7.7075 14.3401 7.705 14.3351C7.70251 14.3301 7.70001 14.3251 7.70001 14.3201V14.3101C7.69001 14.3001 7.69 14.29 7.69 14.28V14.0801C7.7 14.0701 7.70001 14.0701 7.70001 14.0601C7.70001 14.0601 7.70999 14.05 7.70999 14.04C7.71999 14.04 7.72 14.03 7.72 14.03C7.72 14.025 7.7225 14.02 7.72501 14.015C7.72751 14.01 7.73001 14.005 7.73001 14V13.99C7.73501 13.985 7.73751 13.98 7.74001 13.975C7.7425 13.97 7.745 13.965 7.75 13.96V13.95L9.91 10.5601C10.07 10.3101 10.34 10.1599 10.63 10.1499ZM12.12 12.6201L10.67 11.22L9.14999 13.6301H14.92L14.09 12.1499L13.46 12.6699C13.27 12.8199 13.05 12.8999 12.82 12.8999C12.56 12.8999 12.31 12.8101 12.12 12.6201Z" fill="white"/>
<path fill-rule="evenodd" clip-rule="evenodd" d="M7.13004 17.51H16.77C17.9943 17.51 19 16.5181 19 15.28V8.92993C19 7.82448 18.0664 6.95996 16.97 6.95996H7.03C5.92141 6.95996 5 7.82656 5 8.92993V15.55C5 16.6555 5.93357 17.52 7.03 17.52C7.06426 17.52 7.09771 17.5166 7.13004 17.51ZM7.03 7.95996C6.43859 7.95996 6 8.4133 6 8.92993V15.55C6 16.0399 6.40452 16.4761 6.9468 16.5169C6.97386 16.5124 7.00165 16.51 7.03 16.51H16.77C17.4458 16.51 18 15.962 18 15.28V8.92993C18 8.41539 17.5536 7.95996 16.97 7.95996H7.03Z" fill="white"/>
<path d="M3 12.5C3 12.2239 2.77614 12 2.5 12C2.22386 12 2 12.2239 2 12.5V18.6799C2 19.9868 3.09508 21 4.39999 21H19.6C20.9067 21 22 19.9751 22 18.6799V12.5C22 12.2239 21.7761 12 21.5 12C21.2239 12 21 12.2239 21 12.5V18.6799C21 19.3848 20.3933 20 19.6 20H4.39999C3.60491 20 3 19.393 3 18.6799V12.5Z" fill="white"/>
</svg>
