<svg width="24" height="24" viewBox="0 0 24 24" fill="none" xmlns="http://www.w3.org/2000/svg">
<path d="M9 15.96C9 15.68 9.22 15.46 9.5 15.46H14.5C14.78 15.46 15 15.68 15 15.96C15 16.24 14.78 16.46 14.5 16.46H9.5C9.22 16.46 9 16.24 9 15.96ZM9.5 18.54H14.5C14.78 18.54 15 18.32 15 18.04C15 17.76 14.78 17.54 14.5 17.54H9.5C9.22 17.54 9 17.76 9 18.04C9 18.32 9.22 18.54 9.5 18.54ZM7 9.5C7 9.22 6.78 9 6.5 9H5.5C5.22 9 5 9.22 5 9.5C5 9.78 5.22 10 5.5 10H6.5C6.78 10 7 9.78 7 9.5ZM21 9V15C21 16.1 20.1 17 19 17H18.5C18.22 17 18 16.78 18 16.5C18 16.22 18.22 16 18.5 16H19C19.55 16 20 15.55 20 15V9C20 8.45 19.55 8 19 8H17H7H5C4.45 8 4 8.45 4 9V15C4 15.55 4.45 16 5 16H5.5C5.78 16 6 16.22 6 16.5C6 16.78 5.78 17 5.5 17H5C3.9 17 3 16.1 3 15V9C3 7.9 3.9 7 5 7H7V5C7 3.9 7.9 3 9 3H15C16.1 3 17 3.9 17 5V7H19C20.1 7 21 7.9 21 9ZM16 5C16 4.45 15.55 4 15 4H9C8.45 4 8 4.45 8 5V7H16V5ZM18 13.5C18 13.78 17.78 14 17.5 14H17V19C17 20.1 16.1 21 15 21H9C7.9 21 7 20.1 7 19V14H6.5C6.22 14 6 13.78 6 13.5C6 13.22 6.22 13 6.5 13H7H17H17.5C17.78 13 18 13.23 18 13.5ZM16 14H8V19C8 19.55 8.45 20 9 20H15C15.55 20 16 19.55 16 19V14Z" fill="white"/>
</svg>
