<svg width="24" height="24" viewBox="0 0 24 24" fill="none" xmlns="http://www.w3.org/2000/svg">
<path fill-rule="evenodd" clip-rule="evenodd" d="M7 7H5C3.9 7 3 7.9 3 9V15C3 16.1 3.9 17 5 17H5.5C5.78 17 6 16.78 6 16.5C6 16.22 5.78 16 5.5 16H5C4.45 16 4 15.55 4 15V9C4 8.45 4.45 8 5 8H19C19.55 8 20 8.45 20 9V11.5C20 11.78 20.22 12 20.5 12C20.78 12 21 11.78 21 11.5V9C21 7.9 20.1 7 19 7H17V5C17 3.9 16.1 3 15 3H9C7.9 3 7 3.9 7 5V7ZM8 5C8 4.45 8.45 4 9 4H15C15.55 4 16 4.45 16 5V7H8V5Z" fill="white"/>
<path d="M5 9.5C5 9.22 5.22 9 5.5 9H6.5C6.78 9 7 9.22 7 9.5C7 9.78 6.78 10 6.5 10H5.5C5.22 10 5 9.78 5 9.5Z" fill="white"/>
<path d="M6.5 13C6.22 13 6 13.22 6 13.5C6 13.78 6.22 14 6.5 14H7V19C7 20.1 7.9 21 9 21H11.5C11.78 21 12 20.78 12 20.5C12 20.22 11.78 20 11.5 20H9C8.45 20 8 19.55 8 19V14H11.5C11.78 14 12 13.78 12 13.5C12 13.22 11.78 13 11.5 13H6.5Z" fill="white"/>
<path d="M9 16C9 15.72 9.22 15.5 9.5 15.5H10.5C10.78 15.5 11 15.72 11 16C11 16.28 10.78 16.5 10.5 16.5H9.5C9.22 16.5 9 16.28 9 16Z" fill="white"/>
<path d="M9.5 17.5C9.22 17.5 9 17.72 9 18C9 18.28 9.22 18.5 9.5 18.5H10.5C10.78 18.5 11 18.28 11 18C11 17.72 10.78 17.5 10.5 17.5H9.5Z" fill="white"/>
<path d="M22 17C22 14.24 19.76 12 17 12H16.78L15.76 14.81H16.65C17.18 14.81 17.47 15.22 17.28 15.72L16.02 19.19H14.96L16.31 15.47H15.51L14.16 19.19H13.1L14.69 14.82L15.65 12.19C12.99 12.94 11.44 15.7 12.19 18.36C12.68 20.11 14.08 21.45 15.84 21.87L18.41 14.82H20.36C20.89 14.82 21.18 15.23 20.99 15.73L19.88 18.77C19.78 19.01 19.54 19.18 19.28 19.19H17.87L16.85 22H17C19.76 22 22 19.76 22 17Z" fill="white"/>
<path d="M19.19 15.24H20.1L18.82 18.75H17.91L19.19 15.24Z" fill="white"/>
</svg>
