<svg width="24" height="24" viewBox="0 0 24 24" fill="none" xmlns="http://www.w3.org/2000/svg">
<path d="M7.17344 8.89381L5.65077 9.25934C6.84776 6.69944 9.03717 4.75 11.9103 4.75C15.2204 4.75 17.9484 6.90777 18.9354 9.90633C19.0217 10.1686 19.3043 10.3113 19.5666 10.2249C19.8289 10.1386 19.9716 9.85597 19.8852 9.59367C18.7722 6.21223 15.6802 3.75 11.9103 3.75C8.52951 3.75 6.06423 6.03765 4.75566 8.81388L4.31595 7.01149C4.2505 6.74322 3.97996 6.5788 3.71169 6.64425C3.44342 6.70969 3.27899 6.98023 3.34444 7.2485L4.0544 10.1587C4.11968 10.4262 4.38905 10.5906 4.65687 10.5263L7.40687 9.86619C7.67538 9.80173 7.8408 9.5318 7.77634 9.26329C7.71188 8.99477 7.44196 8.82935 7.17344 8.89381Z" fill="white"/>
<path d="M19.721 12.8234C19.8343 12.8927 19.9154 13.0042 19.9464 13.1334L20.6465 16.0533C20.7109 16.3219 20.5454 16.5918 20.2768 16.6561C20.0083 16.7205 19.7384 16.555 19.6741 16.2865L19.2383 14.4688C17.9306 17.2483 15.4639 19.5399 12.0802 19.5399C8.31028 19.5399 5.21829 17.0777 4.10528 13.6963C4.01894 13.434 4.16159 13.1513 4.42389 13.065C4.68619 12.9787 4.96881 13.1213 5.05515 13.3836C6.04213 16.3822 8.77015 18.5399 12.0802 18.5399C14.9508 18.5399 17.139 16.5939 18.3366 14.0372L16.8181 14.4058C16.5498 14.471 16.2794 14.3062 16.2143 14.0379C16.1492 13.7695 16.3139 13.4992 16.5823 13.434L19.3423 12.7641C19.4714 12.7328 19.6076 12.7541 19.721 12.8234Z" fill="white"/>
</svg>
