<svg width="24" height="24" viewBox="0 0 24 24" fill="none" xmlns="http://www.w3.org/2000/svg">
<path d="M15 7.5C14.72 7.5 14.5 7.28 14.5 7V4C14.5 3.72 14.72 3.5 15 3.5H18C18.28 3.5 18.5 3.72 18.5 4C18.5 4.28 18.28 4.5 18 4.5H16.28C16.28 4.5 17.16 5.22998 17.45 5.47998C19.3549 7.07062 20.4595 9.39399 20.4989 11.8631C20.4996 11.9087 20.5 11.9543 20.5 12C20.5 15.5171 18.3638 18.5454 15.3037 19.8311C15.0491 19.9381 14.756 19.8184 14.649 19.5638C14.5421 19.3092 14.6617 19.0161 14.9163 18.9092C17.6162 17.7749 19.5 15.1029 19.5 12C19.5 11.9776 19.4999 11.9552 19.4997 11.9328C19.4984 11.7812 19.4925 11.6302 19.4822 11.48C19.3344 9.33035 18.2772 7.42753 16.6869 6.15008C16.6601 6.12859 16.6362 6.10492 16.615 6.07952C16.1989 5.73495 15.5 5.1499 15.5 5.1499V7C15.5 7.28 15.27 7.5 15 7.5Z" fill="white"/>
<path d="M4 9.16992C4 8.89378 4.22386 8.66992 4.5 8.66992H12C12.2761 8.66992 12.5 8.89378 12.5 9.16992C12.5 9.44606 12.2761 9.66992 12 9.66992H4.5C4.22386 9.66992 4 9.44606 4 9.16992Z" fill="white"/>
<path d="M4.5 13.8301C4.22386 13.8301 4 14.0539 4 14.3301C4 14.6062 4.22386 14.8301 4.5 14.8301H12C12.2761 14.8301 12.5 14.6062 12.5 14.3301C12.5 14.0539 12.2761 13.8301 12 13.8301H4.5Z" fill="white"/>
<path d="M4.5 19C4.22386 19 4 19.2239 4 19.5C4 19.7761 4.22386 20 4.5 20H12C12.2761 20 12.5 19.7761 12.5 19.5C12.5 19.2239 12.2761 19 12 19H4.5Z" fill="white"/>
<path d="M4.5 3.5C4.22386 3.5 4 3.72386 4 4C4 4.27614 4.22386 4.5 4.5 4.5H12C12.2761 4.5 12.5 4.27614 12.5 4C12.5 3.72386 12.2761 3.5 12 3.5H4.5Z" fill="white"/>
</svg>
