<svg width="24" height="24" viewBox="0 0 24 24" fill="none" xmlns="http://www.w3.org/2000/svg">
<path d="M7.64972 4.72998C7.64972 4.62618 7.73581 4.54004 7.83972 4.54004H16.1497C16.2536 4.54004 16.3397 4.62618 16.3397 4.72998V10.27C16.3397 10.5462 16.5636 10.77 16.8397 10.77C17.1159 10.77 17.3397 10.5462 17.3397 10.27V4.72998C17.3397 4.07378 16.8058 3.54004 16.1497 3.54004H7.83972C7.18364 3.54004 6.64972 4.07378 6.64972 4.72998V10.27C6.64972 10.5462 6.87358 10.77 7.14972 10.77C7.42586 10.77 7.64972 10.5462 7.64972 10.27V4.72998Z" fill="white"/>
<path fill-rule="evenodd" clip-rule="evenodd" d="M4.79009 8.91757C4.96264 9.13317 4.92774 9.44782 4.71214 9.62037L3.97559 10.2099C3.98405 10.2158 3.99239 10.222 4.00058 10.2285L11.4587 16.1469C11.7771 16.3943 12.2116 16.3944 12.5301 16.1474L15.1014 14.0918C15.1175 14.069 15.1358 14.0472 15.1562 14.0268C15.2041 13.9789 15.2593 13.9428 15.3183 13.9184L19.9954 10.1791L19.2973 9.62037C19.0817 9.44782 19.0468 9.13317 19.2194 8.91757C19.3919 8.70198 19.7066 8.66708 19.9222 8.83963L20.9516 9.66347C21.2812 9.88004 21.4998 10.2456 21.4998 10.6602V18.5801C21.4998 19.6163 20.6558 20.46 19.6198 20.46H4.38971C3.3536 20.46 2.50977 19.6163 2.50977 18.5801V10.6602C2.50977 10.2593 2.71707 9.87506 3.06347 9.65902L4.08729 8.83963C4.30289 8.66708 4.61754 8.70198 4.79009 8.91757ZM3.50977 18.5801V11.1156L7.93531 14.6275L3.5986 18.9641C3.54173 18.8479 3.50977 18.7176 3.50977 18.5801ZM19.6198 19.46H4.51698L8.7238 15.2533L10.8389 16.9317L10.8422 16.9343C11.523 17.4653 12.4665 17.4653 13.1473 16.9343L15.4865 15.0642L19.8513 19.4289C19.7774 19.4491 19.6998 19.46 19.6198 19.46ZM20.4998 18.5801C20.4998 18.6069 20.4985 18.6334 20.4962 18.6596L16.2724 14.4359L20.4998 11.0561V18.5801Z" fill="white"/>
<path d="M9.75977 10.27C9.75977 9.99388 9.98362 9.77002 10.2598 9.77002H13.7197C13.9959 9.77002 14.2197 9.99388 14.2197 10.27C14.2197 10.5462 13.9959 10.77 13.7197 10.77H10.2598C9.98362 10.77 9.75977 10.5462 9.75977 10.27Z" fill="white"/>
<path d="M10.2598 6.6499C9.98362 6.6499 9.75977 6.87376 9.75977 7.1499C9.75977 7.42604 9.98362 7.6499 10.2598 7.6499H13.7197C13.9959 7.6499 14.2197 7.42604 14.2197 7.1499C14.2197 6.87376 13.9959 6.6499 13.7197 6.6499H10.2598Z" fill="white"/>
</svg>
