<svg width="24" height="24" viewBox="0 0 24 24" fill="none" xmlns="http://www.w3.org/2000/svg">
<path d="M2.15625 13.4902C2.15626 13.3641 2.16182 13.2412 2.1709 13.123L2.20996 12.7725L2.24121 12.5938L2.24316 12.5859C2.24425 12.5793 2.24661 12.5637 2.25 12.5469L2.2832 12.4004L2.28906 12.376C2.29143 12.3654 2.29491 12.3506 2.29883 12.335L2.30859 12.2949L2.30957 12.29L2.33691 12.1934L2.36816 12.0869L2.42871 11.9043C2.45004 11.8443 2.47269 11.7851 2.49609 11.7266L2.50391 11.7061C2.50737 11.6971 2.51262 11.6833 2.51855 11.6689L2.59766 11.4902C2.59788 11.4897 2.59847 11.489 2.59961 11.4863C2.60127 11.4825 2.60582 11.4716 2.61133 11.46L2.68652 11.3086L2.7168 11.251L2.7793 11.1367L2.83301 11.042L2.86133 10.9961L2.86523 10.9902L2.92578 10.8945L2.92871 10.8906L2.9707 10.8262L3.00586 10.7764L3.10547 10.6367L3.12891 10.6055C3.13578 10.5966 3.13987 10.5927 3.14355 10.5879L3.24609 10.4561L3.28906 10.4043L3.38184 10.2979L3.45898 10.2139L3.52637 10.1416L3.60938 10.0586L3.75195 9.9248C3.79994 9.88146 3.84875 9.83883 3.89746 9.79785L3.91602 9.78223C3.9249 9.77445 3.93929 9.7619 3.95508 9.74902L4.02246 9.69531L4.32227 9.47559L4.41992 9.41309L4.52148 9.34766L4.63379 9.2832L4.70996 9.23828L5.0498 9.06836L5.35254 8.94043L5.57422 8.86035L5.6875 8.82617L5.80273 8.79102L5.84082 8.78125C5.84961 8.7791 5.85212 8.77869 5.85352 8.77832L6.05762 8.72656C6.12641 8.71072 6.19649 8.6966 6.26758 8.68359L6.36133 8.66797L6.51758 8.64551L6.78613 8.61816C7.90754 6.98183 9.82563 5.90625 12 5.90625C12.2813 5.90625 12.5576 5.92533 12.8281 5.95996L13.2305 6.02441L13.4482 6.07031L13.8389 6.17188L14.1953 6.28906C15.0151 6.58653 15.7523 7.04658 16.3672 7.62695L16.6201 7.87793L16.8965 8.19336L17.0752 8.41992C17.1334 8.49757 17.1904 8.57685 17.2451 8.6582L17.4072 8.91504C17.4591 9.00163 17.5092 9.08908 17.5566 9.17773L17.6729 9.40723C17.7841 9.63882 17.8812 9.87861 17.9619 10.125L17.9697 10.1543C20.1281 10.3421 21.8437 12.0943 21.8438 14.2598L21.832 14.5273L21.833 14.5283C21.7847 15.2521 21.5448 15.9254 21.1611 16.499L20.9873 16.7383C20.2691 17.6609 19.1566 18.382 17.8594 18.377L17.8604 18.3779C16.1743 18.3829 9.6923 18.3818 7.21289 18.3818H7.20215L6.96582 18.377L6.95312 18.376C6.94322 18.3755 6.93453 18.3745 6.92871 18.374C6.92326 18.3735 6.9184 18.3732 6.91699 18.373C6.90129 18.372 6.88816 18.3709 6.87891 18.3701L6.85547 18.3682L6.66406 18.3525L6.53125 18.3359L6.40723 18.3193L6.27344 18.2969L6.10742 18.2637L6.02832 18.2451L5.86621 18.2051L5.74805 18.1729L5.61816 18.1328L5.49609 18.0918L5.38086 18.0488L5.18457 17.9717C5.11604 17.9426 5.04802 17.9119 4.98047 17.8799L4.7793 17.7793C4.76265 17.7704 4.74777 17.7609 4.7373 17.7549L4.71289 17.7412L4.55371 17.6504L4.48047 17.6055L4.33594 17.5127L4.24707 17.4512L4.13184 17.3682L4.04199 17.2998L3.92578 17.2061L3.84277 17.1357L3.70996 17.0166L3.65527 16.9668L3.55957 16.8711L3.39746 16.6982C3.3772 16.6757 3.33661 16.6325 3.30371 16.5938L3.29688 16.5859L3.28809 16.5752L3.1709 16.4307L3.16406 16.4229L3.0332 16.2432C3.02187 16.2271 3.01108 16.212 3.00391 16.2012L2.9873 16.1758L2.91113 16.0635L2.85547 15.9727L2.79004 15.8613L2.75098 15.7939L2.68066 15.6602L2.6416 15.583C2.59309 15.484 2.54794 15.3824 2.50586 15.2793L2.38965 14.9639L2.36523 14.8838C2.34663 14.8231 2.3297 14.7618 2.31348 14.7002L2.26758 14.5127L2.24902 14.4238L2.22266 14.2773L2.21094 14.209L2.18555 14.0195C2.18529 14.0172 2.18554 14.0146 2.18457 14.0068L2.18066 13.9766C2.17246 13.8962 2.16616 13.8155 2.16211 13.7344L2.15625 13.4902ZM3.09863 13.6875C3.10189 13.7528 3.10675 13.8178 3.11328 13.8818L3.11426 13.8896C3.11485 13.8944 3.11602 13.9056 3.11719 13.916L3.1377 14.0684L3.14648 14.123L3.16797 14.2402L3.18359 14.3115L3.26172 14.6094L3.28125 14.6738L3.37402 14.9248C3.40779 15.0075 3.44396 15.0894 3.4834 15.1699L3.51465 15.2324L3.57129 15.3398L3.60254 15.3945L3.65625 15.4844L3.70117 15.5576L3.7627 15.6484L3.79883 15.7031L3.89941 15.8408L4.00781 15.9746L4.01367 15.9805L4.01855 15.9863C4.04019 16.0118 4.05771 16.0312 4.09375 16.0713L4.22656 16.2109L4.30469 16.2891L4.34863 16.3301L4.45605 16.4277L4.52344 16.4844L4.61914 16.5605L4.69238 16.6162L4.78613 16.6836L4.8584 16.7344L4.97559 16.8096L5.03613 16.8467L5.16602 16.9209L5.21973 16.9512L5.38281 17.0332C5.4378 17.0593 5.49384 17.0843 5.55078 17.1084L5.71094 17.1719L5.80566 17.207L5.90527 17.2402L6.01172 17.2734L6.10742 17.2998L6.24023 17.332L6.30566 17.3467L6.44141 17.374L6.55078 17.3926L6.65234 17.4062L6.76172 17.4199L6.91797 17.4326L6.96289 17.4365C6.97411 17.4375 6.97827 17.4374 6.98047 17.4375L7.00391 17.4395C7.00559 17.4396 7.00731 17.4393 7.00879 17.4395L7.22266 17.4434C9.71073 17.4434 16.177 17.4454 17.8584 17.4404H17.8613L18.0361 17.4346C18.9038 17.3776 19.6954 16.8721 20.248 16.1621L20.3818 15.9775C20.6772 15.5359 20.8604 15.0205 20.8975 14.4668V14.4639L20.9062 14.2598C20.9062 12.525 19.4494 11.0879 17.6113 11.0742L17.251 11.0713L17.1611 10.7227L17.0703 10.417C17.0024 10.2097 16.9218 10.0075 16.8281 9.8125L16.7305 9.62012C16.6899 9.54427 16.6474 9.46967 16.6035 9.39648L16.4668 9.18164C16.4217 9.11464 16.3742 9.04877 16.3252 8.9834L16.1729 8.78809L15.9385 8.52148L15.7236 8.30859C15.2011 7.81536 14.5738 7.42421 13.876 7.1709L13.5723 7.07031L13.2383 6.9834L13.0527 6.94531L12.71 6.88965C12.4773 6.85985 12.2401 6.84375 12 6.84375C10.062 6.84375 8.37262 7.83955 7.44434 9.31934L7.31152 9.53027L7.06348 9.53906C7.05974 9.53919 7.05588 9.53901 7.05273 9.53906L6.93945 9.54492L6.93848 9.5459L6.64062 9.57422L6.51367 9.59375L6.43652 9.60547L6.09766 9.68359C6.08398 9.68727 6.07043 9.68994 6.06445 9.69141L6.05566 9.69336L5.96191 9.72266L5.86914 9.75098L5.6875 9.81543L5.44043 9.91992L5.16309 10.0596L5.10059 10.0957L5.00977 10.1484L4.92676 10.2021L4.84668 10.2529L4.60254 10.4316L4.54688 10.4756L4.50098 10.5156L4.2666 10.7275L4.19922 10.7949L4.14453 10.8535L4.08203 10.9209L4.00684 11.0078L3.97168 11.0498L3.88867 11.1562L3.8584 11.1953L3.77734 11.3086L3.74902 11.3496C3.73593 11.3691 3.72589 11.3826 3.7168 11.3965L3.71777 11.3975L3.66016 11.4854L3.66113 11.4863L3.6377 11.5234L3.59473 11.5996L3.54395 11.6924L3.51953 11.7393C3.49776 11.7815 3.47743 11.8213 3.45898 11.8604C3.45823 11.8621 3.45718 11.8646 3.45605 11.8672L3.44922 11.8828L3.38477 12.0283L3.36719 12.0742L3.26465 12.3633L3.23926 12.4492C3.22687 12.4929 3.22298 12.5027 3.2168 12.5264L3.20801 12.5625L3.19531 12.6152L3.16895 12.7324C3.1688 12.7333 3.16824 12.7346 3.16797 12.7363C3.16754 12.739 3.16686 12.744 3.16602 12.749L3.16211 12.7705L3.13672 12.9141L3.10645 13.1953C3.09874 13.2957 3.09376 13.3937 3.09375 13.4902L3.09863 13.6875Z" fill="white"/>
</svg>
