<svg width="24" height="24" viewBox="0 0 24 24" fill="none" xmlns="http://www.w3.org/2000/svg">
<path d="M4.77089 3.01202C4.55774 3.03651 4.32644 3.10544 4.12236 3.20521C3.71329 3.40658 3.41034 3.70862 3.20626 4.11859C3.10467 4.32358 3.03665 4.55578 3.01216 4.78163C2.99855 4.90589 2.99855 19.0936 3.01216 19.2179C3.03665 19.4438 3.10195 19.6669 3.20535 19.8773C3.40762 20.2882 3.71329 20.5939 4.12236 20.7943C4.33461 20.8977 4.55229 20.9612 4.78449 20.9884C4.83891 20.9939 6.46613 20.9975 9.71783 20.9975C14.1151 20.9975 14.5741 20.9966 14.6249 20.983C14.7845 20.9422 14.916 20.8188 14.9732 20.6583C15.0013 20.5785 15.0058 20.4415 14.9813 20.3644C14.9314 20.2039 14.8199 20.085 14.663 20.0279L14.5986 20.0043L4.84798 19.9952L4.76091 19.9717C4.57225 19.919 4.42259 19.8338 4.29379 19.7059C4.1659 19.5771 4.08064 19.4274 4.02803 19.2388L4.00445 19.1517V4.84785L4.02803 4.76077C4.08064 4.57211 4.1659 4.42245 4.29288 4.29546C4.42259 4.16576 4.57134 4.0805 4.76091 4.02789L4.84798 4.00431H19.1518L19.2389 4.02789C19.4285 4.0805 19.5772 4.16576 19.706 4.29365C19.8339 4.42245 19.9192 4.5712 19.9718 4.76077L19.9954 4.84785L20.0044 14.5984L20.028 14.6628C20.0843 14.817 20.1931 14.9222 20.3527 14.9766C20.4398 15.0057 20.5695 15.0048 20.6584 14.973C20.819 14.9159 20.9423 14.7844 20.9831 14.6247C20.9967 14.5739 20.9976 14.115 20.9976 9.7195C20.9976 6.33628 20.9949 4.84331 20.9877 4.78163C20.9332 4.28367 20.6829 3.80839 20.3047 3.48549C19.9972 3.22245 19.6135 3.05555 19.2181 3.01202C19.1101 3.00023 4.8761 3.00023 4.77089 3.01202ZM11.7051 7.00748C11.6852 7.0093 11.6181 7.01474 11.5555 7.02018C10.8226 7.08186 10.0707 7.32676 9.42848 7.71224C8.88155 8.03968 8.37542 8.49682 7.99901 9.00204C7.44572 9.7449 7.12826 10.5612 7.02304 11.51C6.99946 11.724 6.99946 12.2755 7.02304 12.4896C7.12826 13.4383 7.44572 14.2546 7.99901 14.9975C8.27021 15.3612 8.63846 15.7295 9.00218 16.0007C9.75501 16.5612 10.5868 16.8805 11.5555 16.9812C11.7351 17.0002 12.3029 16.9966 12.4897 16.9766C13.4493 16.8705 14.263 16.5512 15.0194 15.9834L15.1691 15.8719L17.4412 18.1431C19.4893 20.1902 19.7196 20.4179 19.7704 20.4433C19.9673 20.5413 20.1895 20.5068 20.3464 20.3562C20.5051 20.2029 20.5432 19.9717 20.4434 19.7703C20.4181 19.7195 20.1904 19.4891 18.1432 17.441L15.872 15.1689L15.9836 15.0193C16.5586 14.2528 16.8797 13.4247 16.9813 12.4442C16.9886 12.3735 16.9931 12.2066 16.9931 11.9998C16.9931 11.6542 16.9877 11.568 16.9469 11.2841C16.8144 10.3562 16.4244 9.49274 15.8094 8.76168C15.6779 8.60476 15.3949 8.32268 15.2398 8.19206C14.448 7.5254 13.5446 7.14082 12.4988 7.02381C12.3754 7.0102 11.8013 6.99841 11.7051 7.00748ZM12.2675 8.00884C13.0376 8.06599 13.7414 8.32177 14.3582 8.76984C14.6729 8.99841 15.0013 9.32676 15.2298 9.6415C16.2557 11.0528 16.2557 12.9467 15.2298 14.358C15.0013 14.6728 14.6729 15.0011 14.3582 15.2297C12.9469 16.2556 11.053 16.2556 9.64164 15.2297C9.3269 15.0011 8.99855 14.6728 8.76998 14.358C7.88744 13.1435 7.75411 11.5463 8.42259 10.2102C8.6176 9.82018 8.85796 9.48911 9.17361 9.17347C9.43937 8.90862 9.69515 8.71088 10.0135 8.52857C10.6865 8.14127 11.5047 7.95351 12.2675 8.00884Z" fill="white"/>
</svg>
