<svg width="24" height="24" viewBox="0 0 24 24" fill="none" xmlns="http://www.w3.org/2000/svg">
<path d="M16.0706 4.32111C19.1197 6.01254 20.7592 9.54554 20.0094 13.0185C19.5995 14.9001 18.4899 16.5915 16.8503 17.7925C15.4207 18.9235 13.6613 19.544 11.9018 19.544C11.7518 19.544 11.5919 19.544 11.4319 19.534C7.88295 19.3138 4.92381 16.7817 4.12404 13.3888C4.59391 13.5289 5.06375 13.629 5.54361 13.689C5.99348 13.7491 6.45337 13.7791 6.90323 13.7791C8.88266 13.7791 10.8021 13.1886 12.4616 12.0777L12.5116 12.0477L12.5516 12.0076C14.421 10.4063 15.6307 8.19441 15.9606 5.77235C16.0506 5.29195 16.0806 4.81153 16.0706 4.32111ZM15.5307 3C15.2508 3 15.0009 3.23019 15.0309 3.53045C15.1009 4.22103 15.0909 4.92163 14.9909 5.63224C14.681 7.90416 13.5413 9.85581 11.9218 11.247C10.4722 12.2178 8.75269 12.7783 6.92322 12.7783C6.52333 12.7783 6.11347 12.7483 5.69359 12.6982C4.9838 12.5981 4.30397 12.418 3.66415 12.1678C3.60417 12.1478 3.54421 12.1377 3.49422 12.1377C3.2043 12.1377 2.96438 12.408 3.00437 12.7182C3.55421 16.8617 6.94321 20.2546 11.3919 20.5248C11.5719 20.5349 11.7418 20.5449 11.9218 20.5449C13.9712 20.5449 15.9206 19.8142 17.4902 18.5832C19.2297 17.3121 20.5293 15.4305 20.9992 13.2387C21.9389 8.87497 19.5896 4.69144 15.7507 3.05005C15.6707 3.01001 15.6007 3 15.5307 3Z" fill="white"/>
</svg>
