<svg width="24" height="24" viewBox="0 0 24 24" fill="none" xmlns="http://www.w3.org/2000/svg">
<path d="M10.4902 18H5.99023C5.43823 18 4.99023 17.552 4.99023 17V8.98901H17.4472C17.4522 8.98901 17.4572 8.99101 17.4622 8.99101C17.4672 8.99101 17.4702 8.98901 17.4752 8.98901H17.4902V8.98501C17.7512 8.96901 17.9622 8.75701 17.9622 8.49101V7.00001C17.9622 5.89501 17.0662 5.00001 15.9622 5.00001H14.5002V4.51001C14.5002 4.23401 14.2762 4.01001 14.0002 4.01001C13.7242 4.01001 13.5002 4.23401 13.5002 4.51001V6.51201C13.5002 6.78801 13.7242 7.01201 14.0002 7.01201C14.2762 7.01201 14.5002 6.78801 14.5002 6.51201V6.00001H15.9622C16.5142 6.00001 16.9622 6.44801 16.9622 7.00001V7.98901H4.99023V7.00001C4.99023 6.44801 5.43823 6.00001 5.99023 6.00001H6.00723C6.28323 6.00001 6.50723 5.77601 6.50723 5.50001C6.50723 5.22401 6.28323 5.00001 6.00723 5.00001H5.99023C4.88523 5.00001 3.99023 5.89501 3.99023 7.00001V17C3.99023 18.104 4.88523 19 5.99023 19H10.4902C10.7662 19 10.9902 18.776 10.9902 18.5C10.9902 18.224 10.7662 18 10.4902 18ZM7.50023 6.51201C7.50023 6.78801 7.72423 7.01201 8.00023 7.01201C8.27623 7.01201 8.50023 6.78801 8.50023 6.51201V5.98701H12.0112C12.2872 5.98701 12.5122 5.76301 12.5122 5.48701C12.5122 5.21101 12.2872 4.98701 12.0112 4.98701H8.50023V4.51001C8.50023 4.23401 8.27623 4.01001 8.00023 4.01001C7.72423 4.01001 7.50023 4.23401 7.50023 4.51001V5.40901C7.49623 5.43601 7.48323 5.45901 7.48323 5.48701C7.48323 5.51501 7.49623 5.54001 7.50023 5.56601V6.51201ZM9.27423 11.5H7.78123C7.50523 11.5 7.28123 11.724 7.28123 12C7.28123 12.276 7.50523 12.5 7.78123 12.5H9.27423C9.55023 12.5 9.77423 12.276 9.77423 12C9.77423 11.724 9.55023 11.5 9.27423 11.5ZM9.27423 14.485H7.78123C7.50523 14.485 7.28123 14.709 7.28123 14.985C7.28123 15.261 7.50523 15.485 7.78123 15.485H9.27423C9.55023 15.485 9.77423 15.261 9.77423 14.985C9.77423 14.709 9.55023 14.485 9.27423 14.485ZM14.7682 12C14.7682 11.724 14.5452 11.5 14.2682 11.5H12.7742C12.4982 11.5 12.2742 11.724 12.2742 12C12.2742 12.276 12.4982 12.5 12.7742 12.5H14.2682C14.5452 12.5 14.7682 12.276 14.7682 12ZM20.3752 17.137C20.1982 16.925 19.8832 16.897 19.6712 17.073L18.0202 18.45V12.5C18.0202 12.224 17.7962 12 17.5202 12C17.2442 12 17.0202 12.224 17.0202 12.5V18.452L15.3692 17.082C15.1572 16.906 14.8422 16.935 14.6662 17.148C14.4902 17.36 14.5182 17.677 14.7312 17.853L17.2012 19.903C17.3872 20.057 17.6562 20.057 17.8412 19.903L20.3112 17.842C20.5232 17.665 20.5522 17.349 20.3752 17.137Z" fill="white"/>
</svg>
