<svg width="24" height="24" viewBox="0 0 24 24" fill="none" xmlns="http://www.w3.org/2000/svg">
<path d="M12.15 13C12.01 13 11.89 12.9401 11.8 12.8501C11.71 12.7601 11.65 12.6403 11.64 12.5103L11.57 6.45996C11.57 6.18996 11.79 5.95996 12.07 5.95996C12.34 5.95996 12.57 6.17996 12.57 6.45996L12.64 12.0103L16.43 12.04C16.71 12.04 16.93 12.26 16.93 12.54C16.93 12.82 16.71 13.04 16.43 13.04L12.15 13Z" fill="white"/>
<path fill-rule="evenodd" clip-rule="evenodd" d="M2 12C2 6.48 6.48 2 12 2C17.53 2 22 6.48 22 12C22 17.52 17.52 22 12 22C6.48 22 2 17.52 2 12ZM21 12C21 7.04 16.96 3 12 3C7.04 3 3 7.03 3 12C3 16.96 7.04 21 12 21C16.96 21 21 16.96 21 12Z" fill="white"/>
</svg>
