<svg width="24" height="24" viewBox="0 0 24 24" fill="none" xmlns="http://www.w3.org/2000/svg">
<path d="M19 5H16.5H16H15.5C15.22 5 15 5.22 15 5.5C15 5.78 15.22 6 15.5 6H16H16.5H19C19.55 6 20 6.45 20 7V13.5V14.5V15H16.86C16.29 15 15.7699 15.3201 15.5199 15.8301L15.21 16.4497C15.04 16.7897 14.6999 17 14.3199 17H9.16992C8.78992 17 8.44991 16.7897 8.27991 16.4497L7.96997 15.8301C7.70997 15.3201 7.19988 15 6.62988 15H4V13.5V7C4 6.45 4.45 6 5 6H7.5H8H8.5C8.78 6 9 5.78 9 5.5C9 5.22 8.78 5 8.5 5H8H7.5H5C3.9 5 3 5.9 3 7V13.5V19C3 20.1 3.9 21 5 21H19C20.1 21 21 20.1 21 19V14.5V13.5V7C21 5.9 20.1 5 19 5ZM19 20H5C4.45 20 4 19.55 4 19V16H6.62988C6.81988 16 6.98996 16.1098 7.07996 16.2798L7.38989 16.8999C7.72989 17.5799 8.41993 18.0098 9.17993 18.0098H14.33C15.09 18.0098 15.78 17.5899 16.12 16.8999L16.4299 16.2798C16.5099 16.1098 16.6899 16 16.8799 16H20.0199V19C19.9999 19.55 19.55 20 19 20ZM7.63989 9.1499C7.43989 9.3499 7.43989 9.65986 7.63989 9.85986L11.6399 13.8599C11.6599 13.8799 11.69 13.9097 11.72 13.9297C11.72 13.9297 11.73 13.9299 11.73 13.9399C11.74 13.9499 11.7499 13.95 11.7599 13.96C11.7599 13.96 11.7699 13.9597 11.7699 13.9697C11.7799 13.9697 11.7899 13.98 11.7999 13.98C11.8099 13.98 11.8099 13.9797 11.8199 13.9897C11.8299 13.9897 11.84 14 11.85 14C11.86 14 11.86 14 11.87 14C11.88 14 11.8899 14.0098 11.8999 14.0098C11.9099 14.0098 11.9099 14.0098 11.9199 14.0098C11.9299 14.0098 11.94 14.0098 11.95 14.0098C11.97 14.0098 11.98 14.0098 12 14.0098C12.02 14.0098 12.0299 14.0098 12.0499 14.0098C12.0599 14.0098 12.07 14.0098 12.08 14.0098C12.09 14.0098 12.09 14.0098 12.1 14.0098C12.11 14.0098 12.1199 14.01 12.1299 14C12.1399 14 12.1399 14 12.1499 14C12.1599 14 12.1699 13.9897 12.1799 13.9897C12.1899 13.9897 12.19 13.99 12.2 13.98C12.21 13.98 12.22 13.9697 12.23 13.9697C12.23 13.9697 12.24 13.97 12.24 13.96C12.25 13.95 12.2599 13.9499 12.2699 13.9399C12.2699 13.9399 12.2799 13.9397 12.2799 13.9297C12.3099 13.9097 12.34 13.8899 12.36 13.8599L16.36 9.85986C16.56 9.65986 16.56 9.3499 16.36 9.1499C16.16 8.9499 15.8499 8.9499 15.6499 9.1499L12.5 12.2998V3.50977C12.5 3.22977 12.28 3.00977 12 3.00977C11.72 3.00977 11.5 3.22977 11.5 3.50977V12.2998L8.34998 9.1499C8.14998 8.9499 7.83989 8.9499 7.63989 9.1499Z" fill="white"/>
</svg>
