<svg width="24" height="24" viewBox="0 0 24 24" fill="none" xmlns="http://www.w3.org/2000/svg">
<path fill-rule="evenodd" clip-rule="evenodd" d="M14.4303 10.6799C13.7075 10.6799 13.1203 11.2671 13.1203 11.99V13H12.1103C11.3875 13 10.8003 13.5871 10.8003 14.3099V17.78C10.8003 18.5029 11.3875 19.0899 12.1103 19.0899H12.4003C12.6431 19.0899 12.8403 18.8929 12.8403 18.65C12.8403 18.4072 12.6432 18.21 12.4003 18.21H12.1103C11.8731 18.21 11.6803 18.0171 11.6803 17.78V14.3099C11.6803 14.0728 11.8731 13.88 12.1103 13.88H20.2103C20.4475 13.88 20.6403 14.0728 20.6403 14.3099V17.78C20.6403 18.0171 20.4475 18.21 20.2103 18.21H19.9203C19.6774 18.21 19.4803 18.4072 19.4803 18.65C19.4803 18.8929 19.6775 19.0899 19.9203 19.0899H20.2103C20.9331 19.0899 21.5203 18.5029 21.5203 17.78V14.3099C21.5203 13.5858 20.9323 13.0113 20.2227 13H19.2103V11.99C19.2103 11.2671 18.6232 10.6799 17.9003 10.6799H14.4303ZM14.0003 12C14.0003 11.7628 14.1931 11.57 14.4303 11.57H17.9003C18.1375 11.57 18.3303 11.7628 18.3303 12V13.01H14.0003V12Z" fill="white"/>
<path d="M12.9803 14.74C12.7375 14.74 12.5403 14.937 12.5403 15.1799C12.5403 15.4227 12.7374 15.6199 12.9803 15.6199H13.5603C13.8032 15.6199 14.0003 15.4227 14.0003 15.1799C14.0003 14.937 13.8031 14.74 13.5603 14.74H12.9803Z" fill="white"/>
<path fill-rule="evenodd" clip-rule="evenodd" d="M12.9703 16.48C12.7274 16.48 12.5303 16.6772 12.5303 16.92C12.5303 17.1629 12.7275 17.3599 12.9703 17.3599H13.1103V20.1C13.1103 20.8228 13.6975 21.41 14.4203 21.41H17.8903C18.6132 21.41 19.2003 20.8228 19.2003 20.1V17.3599H19.3403C19.5831 17.3599 19.7803 17.1629 19.7803 16.92C19.7803 16.6739 19.5798 16.48 19.3303 16.48H12.9703ZM14.0003 20.0899V17.3499H18.3303V20.0899C18.3303 20.3271 18.1374 20.52 17.9003 20.52H14.4303C14.1932 20.52 14.0003 20.3271 14.0003 20.0899Z" fill="white"/>
<path d="M13.9003 8.05005H8.24032C8.38032 7.92005 8.50031 7.73998 8.61031 7.59998C8.97031 7.16998 9.28031 6.78003 10.0803 6.78003H10.8703C10.9703 6.98003 11.1703 7.14001 11.4103 7.14001C11.7403 7.14001 12.0103 6.87004 12.0103 6.54004C12.0103 6.21004 11.7403 5.93994 11.4103 5.93994C11.1703 5.93994 10.9703 6.11994 10.8703 6.30994H10.1803C9.13031 6.30994 8.69032 6.80001 8.30032 7.26001C7.95032 7.68001 7.68032 8.04005 6.99032 8.05005H6.53032C6.42032 7.69005 6.09032 7.39001 5.69032 7.39001C5.20032 7.39001 4.81032 7.79002 4.81032 8.27002C4.81032 8.76002 5.21032 9.15002 5.69032 9.15002C6.09032 9.15002 6.42032 8.84999 6.53032 8.48999H8.26031C8.92031 8.50999 9.19032 8.87003 9.53032 9.28003C9.92032 9.74003 10.3603 10.24 11.4103 10.24H11.7103V10.58H12.9003V9.45996H11.7103V9.80005H11.3403C10.5403 9.80005 10.2303 9.37995 9.87032 8.94995C9.76032 8.81995 9.61032 8.63 9.48032 8.5H13.8903V9L15.3403 8.27002L13.8903 7.54004V8.05005H13.9003ZM22.1703 6.41003C22.1703 5.50003 21.4303 4.76001 20.5203 4.76001H17.8203V4.73999C17.8203 3.64999 16.9303 2.76001 15.8403 2.76001H3.80032C2.71032 2.76001 1.82031 3.64999 1.82031 4.73999V11.78C1.82031 12.87 2.71032 13.76 3.80032 13.76H9.11031C9.39031 13.76 9.61031 13.54 9.61031 13.26C9.61031 12.98 9.39031 12.76 9.11031 12.76H3.80032C3.26032 12.76 2.82031 12.32 2.82031 11.78V4.73999C2.82031 4.19999 3.26032 3.76001 3.80032 3.76001H15.8403C16.3803 3.76001 16.8203 4.19999 16.8203 4.73999V9.14001H16.8303C16.8303 9.15001 16.8203 9.16993 16.8203 9.17993C16.8203 9.45993 17.0403 9.67993 17.3203 9.67993C17.6003 9.67993 17.8203 9.45993 17.8203 9.17993C17.8203 9.16993 17.8103 9.15001 17.8103 9.14001H17.8203V5.76001H20.5203C20.8803 5.76001 21.1703 6.05003 21.1703 6.41003V10.11C21.1703 10.14 21.1703 10.1599 21.1603 10.1899C21.1503 10.2299 21.1503 10.27 21.1403 10.3C21.1303 10.33 21.1103 10.36 21.1003 10.38C21.0203 10.54 20.8903 10.67 20.7103 10.72H20.7003C20.4803 10.77 20.3103 10.97 20.3103 11.21C20.3103 11.44 20.4803 11.65 20.7003 11.7C20.7303 11.7 20.7703 11.71 20.8003 11.71H20.8103C20.8803 11.7 20.9403 11.69 21.0003 11.67C21.0103 11.67 21.0203 11.66 21.0303 11.66C21.2903 11.58 21.5103 11.44 21.6903 11.26C21.7303 11.22 21.7603 11.18 21.7903 11.13C21.8203 11.1 21.8503 11.06 21.8703 11.03C21.9403 10.92 22.0003 10.8099 22.0503 10.6899C22.0703 10.6399 22.0803 10.6 22.1003 10.55C22.1403 10.42 22.1703 10.28 22.1703 10.13C22.1703 10.12 22.1703 10.11 22.1703 10.11V6.41003Z" fill="white"/>
</svg>
